
<!-- Generator: visioncortex VTracer 0.6.4 -->
<svg version="1.1" xmlns="http://www.w3.org/2000/svg" viewBox="0 0 225 225" preserveAspectRatio="xMidYMid meet">
<path d="M0 0 C74.25 0 148.5 0 225 0 C225 74.25 225 148.5 225 225 C150.75 225 76.5 225 0 225 C0 150.75 0 76.5 0 0 Z " fill="#FEFEFE" transform="translate(0,0)"/>
<path d="M0 0 C0.653 0.22 1.305 0.44 1.978 0.667 C9.299 2.928 15.585 3.239 23.188 2.688 C24.235 2.626 25.282 2.565 26.361 2.502 C28.909 2.351 31.454 2.183 34 2 C34.33 3.65 34.66 5.3 35 7 C33.02 6.67 31.04 6.34 29 6 C29 5.34 29 4.68 29 4 C26.532 5.152 24.952 6.048 23 8 C19.375 8.125 19.375 8.125 16 8 C16.66 7.34 17.32 6.68 18 6 C13.796 5.57 13.796 5.57 10.25 7.469 C7.11 9.605 4.51 9.513 0.75 9.688 C-0.513 9.753 -1.777 9.819 -3.078 9.887 C-4.524 9.943 -4.524 9.943 -6 10 C-4.848 13.689 -4.848 13.689 -3 17 C0.559 18.53 0.559 18.53 4 19 C3.67 22.96 3.34 26.92 3 31 C3.99 30.67 4.98 30.34 6 30 C6.681 31.207 6.681 31.207 7.375 32.438 C8.747 35.089 8.747 35.089 11 36 C10.505 32.535 10.505 32.535 10 29 C12.31 30.65 14.62 32.3 17 34 C17.557 33.691 18.114 33.381 18.688 33.062 C21.245 31.887 23.184 31.206 26 31 C28.688 32.375 28.688 32.375 31 34 C31.66 34.33 32.32 34.66 33 35 C35.341 32.872 36.707 30.884 38 28 C38.75 30.125 38.75 30.125 39 33 C37.375 36.313 37.375 36.313 35 39 C32.25 39.375 32.25 39.375 30 39 C29.01 36.525 29.01 36.525 28 34 C26.02 34 24.04 34 22 34 C21.227 35.771 21.227 35.771 21 38 C22.115 40.301 22.115 40.301 23.812 42.5 C27.146 47.124 29.324 50.162 29 56 C28.34 56 27.68 56 27 56 C27.33 56.99 27.66 57.98 28 59 C28.557 65.73 28.204 70.935 25 77 C24.312 78.416 23.624 79.833 22.938 81.25 C21.739 83.657 20.503 85.746 19 88 C19.639 88.227 20.279 88.454 20.938 88.688 C34.516 94.507 34.516 94.507 36.949 100.234 C39.795 109.931 39.795 109.931 39 115 C36.875 118 36.875 118 34 120 C30.687 119.812 30.687 119.812 28 119 C28.33 118.01 28.66 117.02 29 116 C28.34 116 27.68 116 27 116 C26.67 112.7 26.34 109.4 26 106 C22.248 104.343 18.736 103.498 14.688 102.875 C13.619 102.707 12.55 102.54 11.449 102.367 C10.237 102.185 10.237 102.185 9 102 C9.589 105.378 10.199 108.752 10.812 112.125 C10.978 113.076 11.144 114.028 11.314 115.008 C12.66 122.364 12.66 122.364 16 129 C17.904 129.95 17.904 129.95 20 130.062 C23.792 130.753 23.792 130.753 26 133.375 C27 136 27 136 27 140 C27.928 140.289 28.856 140.577 29.812 140.875 C33 142 33 142 36 144 C36.402 144.959 36.402 144.959 36.812 145.938 C38.514 148.893 40.995 149.529 44 151 C44.33 151.99 44.66 152.98 45 154 C44.34 153.835 43.68 153.67 43 153.5 C37.581 152.597 32.349 152.663 27 154 C31.75 150 31.75 150 34 150 C33.67 149.01 33.34 148.02 33 147 C24.091 143.761 16.236 145.443 7.449 148.312 C5.011 148.997 2.77 149.297 0.25 149.5 C-2.916 149.756 -4.283 150.142 -7.25 151.625 C-10 153 -10 153 -12.129 152.336 C-16.607 151.812 -19.776 153.97 -23.688 156 C-25.209 156.778 -26.733 157.549 -28.262 158.312 C-28.932 158.659 -29.602 159.006 -30.292 159.363 C-30.855 159.573 -31.419 159.784 -32 160 C-32.66 159.67 -33.32 159.34 -34 159 C-32.35 158.01 -30.7 157.02 -29 156 C-31.563 155.946 -34.124 155.906 -36.688 155.875 C-37.409 155.858 -38.13 155.841 -38.873 155.824 C-43.13 155.785 -46.136 156.303 -50 158 C-52.282 158.413 -54.576 158.763 -56.875 159.062 C-58.048 159.218 -59.221 159.374 -60.43 159.535 C-61.608 159.689 -62.786 159.842 -64 160 C-66.334 160.33 -68.667 160.663 -71 161 C-68.037 158.615 -65.094 156.987 -61.625 155.438 C-60.71 155.024 -59.795 154.61 -58.852 154.184 C-55.939 152.974 -53.003 151.961 -50 151 C-50.53 150.312 -50.53 150.312 -51.07 149.611 C-52.678 147.516 -54.276 145.414 -55.875 143.312 C-56.431 142.591 -56.986 141.87 -57.559 141.127 C-60.271 137.549 -62.646 134.345 -64 130 C-63.01 129.67 -62.02 129.34 -61 129 C-61 126.69 -61 124.38 -61 122 C-61.531 122.482 -62.062 122.964 -62.609 123.461 C-63.316 124.093 -64.022 124.724 -64.75 125.375 C-65.446 126.001 -66.142 126.628 -66.859 127.273 C-68.882 128.905 -70.566 130.1 -73 131 C-73.99 130.67 -74.98 130.34 -76 130 C-78.143 130.389 -78.143 130.389 -80 131 C-79.505 131.99 -79.505 131.99 -79 133 C-79.58 133.124 -80.16 133.248 -80.758 133.375 C-86.552 134.905 -89.456 136.872 -92.781 141.859 C-94.476 144.836 -95.797 147.793 -97 151 C-96.237 150.917 -95.474 150.835 -94.688 150.75 C-92 151 -92 151 -90.188 152.625 C-89 155 -89 155 -89 161 C-94.94 161 -100.88 161 -107 161 C-107.576 150.204 -105.673 139.815 -99.551 130.68 C-97.722 128.699 -95.822 127.55 -93.5 126.188 C-87.909 122.827 -86.039 118.015 -84 112 C-84 111.67 -84 111.34 -84 111 C-84.539 111.159 -85.078 111.317 -85.633 111.48 C-91.705 112.813 -97.958 113.003 -103.562 110.25 C-107.248 106.848 -109.642 104.085 -110.238 98.949 C-110.42 93.401 -109.758 90.352 -106 86 C-100.834 81.267 -95.266 78.382 -89.014 75.307 C-83.626 72.656 -83.626 72.656 -80 68 C-79.417 64.458 -79.417 64.458 -80 61 C-81.5 58.833 -81.5 58.833 -84 58 C-88.106 58 -89.625 58.66 -92.688 61.438 C-93.451 62.283 -94.214 63.129 -95 64 C-98.204 66.136 -99.019 66.231 -102.688 66.125 C-103.496 66.107 -104.304 66.089 -105.137 66.07 C-105.752 66.047 -106.366 66.024 -107 66 C-106.134 65.01 -106.134 65.01 -105.25 64 C-103.429 61.572 -102.302 59.644 -101.062 56.938 C-99.265 53.266 -97.687 51.011 -94 49 C-91.24 48.692 -88.793 48.811 -86 49 C-86 48.34 -86 47.68 -86 47 C-81.317 48.735 -78.204 52.592 -76 57 C-75.8 58.91 -75.687 60.83 -75.625 62.75 C-75.576 63.776 -75.527 64.802 -75.477 65.859 C-76.169 70.015 -77.86 72.342 -81 75 C-84.245 77.076 -87.626 78.826 -91.062 80.562 C-100.251 84.886 -100.251 84.886 -105.715 93.062 C-106.12 96.591 -106.198 98.544 -104.75 101.875 C-102.611 104.472 -100.964 105.866 -97.582 106.336 C-96.668 106.349 -95.754 106.362 -94.812 106.375 C-93.911 106.403 -93.01 106.432 -92.082 106.461 C-84.41 105.314 -80.004 101.344 -75.312 95.5 C-69.367 88.575 -62.635 84.387 -54.599 80.172 C-41.844 73.615 -41.844 73.615 -33 63 C-32.474 59.05 -32.25 55.25 -32.141 51.266 C-32 48 -32 48 -31 46 C-32.98 46.33 -34.96 46.66 -37 47 C-35.902 38.627 -32.235 33.513 -27 27 C-27.99 27 -28.98 27 -30 27 C-28.604 21.726 -25.304 19.038 -21 16 C-18.376 14.512 -15.749 13.254 -13 12 C-14.32 11.34 -15.64 10.68 -17 10 C-15.108 9.013 -13.211 8.036 -11.312 7.062 C-9.729 6.245 -9.729 6.245 -8.113 5.41 C-5.338 4.153 -2.997 3.439 0 3 C0 2.01 0 1.02 0 0 Z M8 99 C8 99.66 8 100.32 8 101 C13.94 101.66 19.88 102.32 26 103 C25.67 102.34 25.34 101.68 25 101 C22.097 100.303 22.097 100.303 18.688 99.875 C16.961 99.624 16.961 99.624 15.199 99.367 C11.874 98.924 11.874 98.924 8 99 Z M-69 124 C-70.328 125.339 -71.659 126.674 -73 128 C-68.565 126.585 -66.132 124.402 -62.875 121.125 C-53.244 112.226 -43.591 111.34 -31 111 C-31 110.67 -31 110.34 -31 110 C-48.216 109.205 -56.991 110.939 -69 124 Z M35 7 C35.66 7.33 36.32 7.66 37 8 C36.67 11.3 36.34 14.6 36 18 C35.34 18 34.68 18 34 18 C34 17.34 34 16.68 34 16 C33.01 16.33 32.02 16.66 31 17 C31 19.31 31 21.62 31 24 C31.99 24 32.98 24 34 24 C34.66 23.34 35.32 22.68 36 22 C36.33 23.98 36.66 25.96 37 28 C30.672 28.358 30.672 28.358 28.125 27 C26.27 23.702 25.284 20.717 26 17 C27.861 14.829 29.814 13.232 32.117 11.543 C34.279 10.051 34.279 10.051 35 7 Z M11 9 C11.66 9.33 12.32 9.66 13 10 C12.01 11.485 12.01 11.485 11 13 C11.33 13.66 11.66 14.32 12 15 C12 17 12 19 12 21 C12.33 21.33 12.66 21.66 13 22 C13 20.35 13 18.7 13 17 C13.536 17.784 14.072 18.568 14.625 19.375 C17.302 22.334 19.184 23.046 23 24 C23.33 23.01 23.66 22.02 24 21 C24.371 21.887 24.743 22.774 25.125 23.688 C27.331 27.584 29.461 29.326 33 32 C32.67 32.99 32.34 33.98 32 35 C31.464 34.34 30.928 33.68 30.375 33 C28.138 30.738 28.138 30.738 25.062 30.688 C22.053 30.87 22.053 30.87 19.562 31.875 C16.334 32.032 15.722 31.244 13.312 29.188 C11.5 27.496 9.753 25.753 8 24 C7.01 24.495 7.01 24.495 6 25 C5.653 19.332 6.474 15.954 9 11 C9.66 10.34 10.32 9.68 11 9 Z M-78 131 C-76 132 -76 132 -76 132 Z " fill="#1E1D1D" transform="translate(145,32)"/>
<path d="M0 0 C0.653 0.22 1.305 0.44 1.978 0.667 C9.299 2.928 15.585 3.239 23.188 2.688 C24.235 2.626 25.282 2.565 26.361 2.502 C28.909 2.351 31.454 2.183 34 2 C34.33 3.65 34.66 5.3 35 7 C33.02 6.67 31.04 6.34 29 6 C29 5.34 29 4.68 29 4 C26.532 5.152 24.952 6.048 23 8 C19.375 8.125 19.375 8.125 16 8 C16.66 7.34 17.32 6.68 18 6 C13.796 5.57 13.796 5.57 10.25 7.469 C7.11 9.605 4.51 9.513 0.75 9.688 C-0.513 9.753 -1.777 9.819 -3.078 9.887 C-4.524 9.943 -4.524 9.943 -6 10 C-4.848 13.689 -4.848 13.689 -3 17 C0.559 18.53 0.559 18.53 4 19 C3.67 22.96 3.34 26.92 3 31 C3.99 30.67 4.98 30.34 6 30 C6.681 31.207 6.681 31.207 7.375 32.438 C8.747 35.089 8.747 35.089 11 36 C10.505 32.535 10.505 32.535 10 29 C12.31 30.65 14.62 32.3 17 34 C17.835 33.536 17.835 33.536 18.688 33.062 C21.245 31.887 23.184 31.206 26 31 C28.688 32.375 28.688 32.375 31 34 C31.66 34.33 32.32 34.66 33 35 C35.341 32.872 36.707 30.884 38 28 C38.75 30.125 38.75 30.125 39 33 C37.375 36.313 37.375 36.313 35 39 C32.25 39.375 32.25 39.375 30 39 C29.01 36.525 29.01 36.525 28 34 C26.02 34 24.04 34 22 34 C21.227 35.771 21.227 35.771 21 38 C22.115 40.301 22.115 40.301 23.812 42.5 C27.146 47.124 29.324 50.162 29 56 C28.34 56 27.68 56 27 56 C27.33 56.99 27.66 57.98 28 59 C28.557 65.73 28.204 70.935 25 77 C24.312 78.416 23.624 79.833 22.938 81.25 C21.739 83.657 20.503 85.746 19 88 C19.639 88.227 20.279 88.454 20.938 88.688 C34.516 94.507 34.516 94.507 36.949 100.234 C39.795 109.931 39.795 109.931 39 115 C36.875 118 36.875 118 34 120 C30.687 119.812 30.687 119.812 28 119 C28.33 118.01 28.66 117.02 29 116 C28.34 116 27.68 116 27 116 C26.67 112.7 26.34 109.4 26 106 C22.248 104.343 18.736 103.498 14.688 102.875 C13.619 102.707 12.55 102.54 11.449 102.367 C10.237 102.185 10.237 102.185 9 102 C9.589 105.378 10.199 108.752 10.812 112.125 C10.978 113.076 11.144 114.028 11.314 115.008 C12.656 122.366 12.656 122.366 16 129 C17.942 129.914 17.942 129.914 20.062 130 C22.191 130.375 22.191 130.375 24 131 C25.429 133.858 26 135.824 26 139 C25.031 138.979 24.061 138.959 23.062 138.938 C20.125 138.644 20.125 138.644 19 140 C15.947 140.442 13.051 140.465 10 140 C7.25 137.812 7.25 137.812 5 135 C3.67 133.886 3.67 133.886 2.312 132.75 C-0.01 129.988 -0.315 129.279 -0.875 125.938 C-2.326 117.61 -7.703 110.394 -13 104 C-14.485 104.495 -14.485 104.495 -16 105 C-16.33 103.35 -16.66 101.7 -17 100 C-17.66 100 -18.32 100 -19 100 C-18.893 99.108 -18.786 98.216 -18.676 97.297 C-18.556 96.126 -18.436 94.956 -18.312 93.75 C-18.185 92.59 -18.057 91.43 -17.926 90.234 C-18.007 86.675 -18.575 85.518 -21 83 C-20.67 82.34 -20.34 81.68 -20 81 C-18.985 82.217 -17.989 83.449 -17 84.688 C-16.443 85.372 -15.886 86.056 -15.312 86.762 C-13.757 89.414 -13.759 90.974 -14 94 C-14 99.731 -10.058 104.385 -6.695 108.668 C-3.404 113.195 -0.744 118.129 2 123 C2.33 122.34 2.66 121.68 3 121 C2.271 118.817 2.271 118.817 1.094 116.387 C0.68 115.468 0.266 114.55 -0.16 113.604 C-1.049 111.669 -1.942 109.737 -2.84 107.807 C-3.254 106.884 -3.667 105.962 -4.094 105.012 C-4.482 104.171 -4.871 103.33 -5.271 102.464 C-6.129 99.565 -5.869 97.867 -5 95 C-4 94 -4 94 -0.562 93.562 C3.041 93.352 3.041 93.352 5 91 C4.677 87.403 4.677 87.403 4 84 C3.67 84 3.34 84 3 84 C3 85.98 3 87.96 3 90 C-3.82 89.574 -9.03 84.293 -13.375 79.438 C-17.37 74.477 -18.597 70.451 -18 64 C-16.38 61.797 -15.422 61.096 -12.738 60.488 C-11.938 60.43 -11.137 60.372 -10.312 60.312 C-9.1 60.214 -9.1 60.214 -7.863 60.113 C-7.248 60.076 -6.634 60.039 -6 60 C-11.504 56.721 -15.558 55.141 -22 56 C-28.236 60.045 -29.426 69.219 -31 76 C-31.66 74.68 -32.32 73.36 -33 72 C-33.257 72.557 -33.513 73.114 -33.777 73.688 C-37.089 80.289 -41.35 84.346 -47 89 C-51.227 92.768 -53.057 95.785 -55 101 C-55.66 101 -56.32 101 -57 101 C-57 98.36 -57 95.72 -57 93 C-69.118 99.637 -75.758 108.453 -82.449 120.328 C-84.979 124.687 -87.164 128.223 -91.953 130.25 C-95.832 132.478 -96.549 134.321 -98.188 138.438 C-98.435 139.051 -98.682 139.664 -98.936 140.295 C-101.182 146.051 -102.738 151.955 -104 158 C-102.35 158 -100.7 158 -99 158 C-99.99 155.525 -99.99 155.525 -101 153 C-99.062 153.75 -99.062 153.75 -97 155 C-96.188 157.062 -96.188 157.062 -96 159 C-97 160 -97 160 -99.066 160.098 C-99.89 160.086 -100.714 160.074 -101.562 160.062 C-102.389 160.053 -103.215 160.044 -104.066 160.035 C-104.704 160.024 -105.343 160.012 -106 160 C-106.794 149.873 -103.423 137.995 -97 130 C-95.038 128.593 -93.021 127.449 -90.914 126.273 C-85.469 122.651 -83.498 115.857 -81.125 110.062 C-78.519 103.839 -75.599 98.927 -71 94 C-70.475 93.422 -69.951 92.845 -69.41 92.25 C-64.249 87.195 -57.942 84.106 -51.652 80.692 C-41.552 75.179 -35.288 69.68 -29 60 C-27.933 58.468 -26.85 56.946 -25.75 55.438 C-25.291 54.797 -24.832 54.156 -24.359 53.496 C-23 52 -23 52 -20 51 C-20.639 49.928 -21.279 48.855 -21.938 47.75 C-23.567 45.016 -24.195 43.218 -25 40 C-26.32 43.96 -27.64 47.92 -29 52 C-29.33 52 -29.66 52 -30 52 C-29.348 41.14 -25.202 30.86 -19 22 C-21.31 22.66 -23.62 23.32 -26 24 C-24.524 20.143 -22.53 18.782 -19 16.75 C-18.113 16.229 -17.226 15.708 -16.312 15.172 C-14 14 -14 14 -12 14 C-13.255 11.489 -14.501 11.129 -17 10 C-15.108 9.013 -13.211 8.036 -11.312 7.062 C-9.729 6.245 -9.729 6.245 -8.113 5.41 C-5.338 4.153 -2.997 3.439 0 3 C0 2.01 0 1.02 0 0 Z M8 99 C8 99.66 8 100.32 8 101 C13.94 101.66 19.88 102.32 26 103 C25.67 102.34 25.34 101.68 25 101 C22.097 100.303 22.097 100.303 18.688 99.875 C16.961 99.624 16.961 99.624 15.199 99.367 C11.874 98.924 11.874 98.924 8 99 Z M35 7 C35.66 7.33 36.32 7.66 37 8 C36.67 11.3 36.34 14.6 36 18 C35.34 18 34.68 18 34 18 C34 17.34 34 16.68 34 16 C33.01 16.33 32.02 16.66 31 17 C31 19.31 31 21.62 31 24 C31.99 24 32.98 24 34 24 C34.66 23.34 35.32 22.68 36 22 C36.33 23.98 36.66 25.96 37 28 C30.672 28.358 30.672 28.358 28.125 27 C26.27 23.702 25.284 20.717 26 17 C27.861 14.829 29.814 13.232 32.117 11.543 C34.279 10.051 34.279 10.051 35 7 Z M11 9 C11.66 9.33 12.32 9.66 13 10 C12.01 11.485 12.01 11.485 11 13 C11.33 13.66 11.66 14.32 12 15 C12 17 12 19 12 21 C12.33 21.33 12.66 21.66 13 22 C13 20.35 13 18.7 13 17 C13.536 17.784 14.072 18.568 14.625 19.375 C17.302 22.334 19.184 23.046 23 24 C23.33 23.01 23.66 22.02 24 21 C24.371 21.887 24.743 22.774 25.125 23.688 C27.331 27.584 29.461 29.326 33 32 C32.67 32.99 32.34 33.98 32 35 C31.464 34.34 30.928 33.68 30.375 33 C28.138 30.738 28.138 30.738 25.062 30.688 C22.053 30.87 22.053 30.87 19.562 31.875 C16.334 32.032 15.722 31.244 13.312 29.188 C11.5 27.496 9.753 25.753 8 24 C7.01 24.495 7.01 24.495 6 25 C5.653 19.332 6.474 15.954 9 11 C9.66 10.34 10.32 9.68 11 9 Z M-31 52 C-30.67 52 -30.34 52 -30 52 C-30 54.31 -30 56.62 -30 59 C-30.33 59 -30.66 59 -31 59 C-31 56.69 -31 54.38 -31 52 Z " fill="#242323" transform="translate(145,32)"/>
<path d="M0 0 C0 0.99 0 1.98 0 3 C-1.052 3.474 -2.104 3.949 -3.188 4.438 C-7.875 7.1 -10.004 11.109 -12 16 C-12.836 19.351 -13.185 22.55 -13.25 26 C-13.276 26.825 -13.302 27.65 -13.328 28.5 C-12.904 31.734 -12.017 33.433 -10 36 C-7.196 37.679 -7.196 37.679 -3.938 38.938 C6.857 43.643 15.554 48.109 21 59 C21.688 62.313 21.688 62.313 22 65 C22.967 63.945 23.923 62.881 24.875 61.812 C25.409 61.221 25.942 60.629 26.492 60.02 C30.595 54.525 30.876 48.616 30 42 C28.099 36.576 25.518 31.681 21 28 C21.99 27.505 21.99 27.505 23 27 C22.01 26.01 21.02 25.02 20 24 C20.33 23.34 20.66 22.68 21 22 C26.46 26.335 30.957 30.636 34 37 C34 37.66 34 38.32 34 39 C33.34 39 32.68 39 32 39 C32.33 39.99 32.66 40.98 33 42 C33.669 49.403 33.654 55.93 29 62 C26.834 64.248 24.622 66.295 22 68 C21.34 68 20.68 68 20 68 C19.792 67.143 19.585 66.286 19.371 65.402 C17.367 57.964 15.404 52.565 9 48 C7.683 47.302 6.353 46.626 5 46 C6.031 46.87 6.031 46.87 7.082 47.758 C7.983 48.539 8.884 49.32 9.812 50.125 C10.706 50.891 11.599 51.656 12.52 52.445 C16.781 56.835 18.429 60.846 18.438 66.938 C18.344 71.693 17.523 74.027 14.84 78 C11.012 87.116 16.307 104.083 19.802 113.059 C20.51 114.717 21.252 116.36 22 118 C20.35 118.33 18.7 118.66 17 119 C12.266 112.432 8.766 105.672 5.562 98.25 C5.104 97.236 4.646 96.221 4.174 95.176 C3.533 93.704 3.533 93.704 2.879 92.203 C2.493 91.323 2.107 90.443 1.709 89.536 C0.89 86.608 1.123 84.885 2 82 C3 81 3 81 6.438 80.562 C10.041 80.352 10.041 80.352 12 78 C11.677 74.403 11.677 74.403 11 71 C10.67 71 10.34 71 10 71 C10 72.98 10 74.96 10 77 C3.18 76.574 -2.03 71.293 -6.375 66.438 C-10.37 61.477 -11.597 57.451 -11 51 C-9.38 48.797 -8.422 48.096 -5.738 47.488 C-4.938 47.43 -4.137 47.372 -3.312 47.312 C-2.1 47.214 -2.1 47.214 -0.863 47.113 C-0.248 47.076 0.366 47.039 1 47 C-4.504 43.721 -8.558 42.141 -15 43 C-21.236 47.045 -22.426 56.219 -24 63 C-24.99 61.02 -24.99 61.02 -26 59 C-26.257 59.557 -26.513 60.114 -26.777 60.688 C-30.089 67.289 -34.35 71.346 -40 76 C-44.227 79.768 -46.057 82.785 -48 88 C-48.66 88 -49.32 88 -50 88 C-50 85.36 -50 82.72 -50 80 C-62.118 86.637 -68.758 95.453 -75.449 107.328 C-77.979 111.687 -80.164 115.223 -84.953 117.25 C-88.832 119.478 -89.549 121.321 -91.188 125.438 C-91.558 126.357 -91.558 126.357 -91.936 127.295 C-94.182 133.051 -95.738 138.955 -97 145 C-95.35 145 -93.7 145 -92 145 C-92.99 142.525 -92.99 142.525 -94 140 C-92.062 140.75 -92.062 140.75 -90 142 C-89.188 144.062 -89.188 144.062 -89 146 C-90 147 -90 147 -92.066 147.098 C-92.89 147.086 -93.714 147.074 -94.562 147.062 C-95.389 147.053 -96.215 147.044 -97.066 147.035 C-97.704 147.024 -98.343 147.012 -99 147 C-99.794 136.873 -96.423 124.995 -90 117 C-88.038 115.593 -86.021 114.449 -83.914 113.273 C-78.469 109.651 -76.498 102.857 -74.125 97.062 C-71.519 90.839 -68.599 85.927 -64 81 C-63.475 80.422 -62.951 79.845 -62.41 79.25 C-57.249 74.195 -50.942 71.106 -44.652 67.692 C-34.552 62.179 -28.288 56.68 -22 47 C-20.933 45.468 -19.85 43.946 -18.75 42.438 C-18.291 41.797 -17.832 41.156 -17.359 40.496 C-16 39 -16 39 -13 38 C-13.639 36.928 -14.279 35.855 -14.938 34.75 C-16.567 32.016 -17.195 30.218 -18 27 C-19.32 30.96 -20.64 34.92 -22 39 C-22.33 39 -22.66 39 -23 39 C-22.348 28.14 -18.202 17.86 -12 9 C-14.31 9.66 -16.62 10.32 -19 11 C-17.526 7.138 -15.547 5.818 -12 3.812 C-10.67 3.049 -10.67 3.049 -9.312 2.27 C-5.854 0.371 -3.961 -0.104 0 0 Z M-24 39 C-23.67 39 -23.34 39 -23 39 C-23 41.31 -23 43.62 -23 46 C-23.33 46 -23.66 46 -24 46 C-24 43.69 -24 41.38 -24 39 Z " fill="#F2F2F2" transform="translate(138,45)"/>
<path d="M0 0 C11.905 15.951 11.905 15.951 11 25 C11.577 25.186 12.155 25.371 12.75 25.562 C16.078 27.689 17.118 30.548 19 34 C16.501 34.795 14.001 35.586 11.5 36.375 C10.804 36.597 10.108 36.818 9.391 37.047 C5.88 38.152 2.381 39.174 -1.199 40.031 C-4.415 40.851 -7.275 41.817 -10.312 43.125 C-13.218 44.375 -14.802 45 -18 45 C-18.268 44.031 -18.536 43.061 -18.812 42.062 C-20.629 38.764 -20.629 38.764 -23.508 38.555 C-24.475 38.516 -25.441 38.477 -26.438 38.438 C-31.727 38.221 -31.727 38.221 -34.625 35.875 C-36.392 32.18 -37.281 30.146 -37 26 C-35.19 23.858 -33.198 22.095 -31.086 20.25 C-28.686 17.661 -28.041 15.595 -27 12.25 C-25.871 9.422 -25.871 9.422 -24 7 C-19.971 5.363 -16.177 4.498 -11.91 3.781 C-7.827 2.966 -4.01 0 0 0 Z " fill="#FBFBFB" transform="translate(133,138)"/>
<path d="M0 0 C-0.603 0.315 -1.207 0.629 -1.828 0.953 C-6.094 3.237 -9.815 5.261 -13 9 C-12.402 8.649 -11.804 8.299 -11.188 7.938 C-9 7 -9 7 -6 8 C-6.398 8.606 -6.797 9.212 -7.207 9.836 C-10.928 15.721 -13.359 21.235 -15 28 C-14.01 26.68 -13.02 25.36 -12 24 C-11.879 24.603 -11.758 25.207 -11.633 25.828 C-11.465 26.627 -11.298 27.427 -11.125 28.25 C-10.963 29.039 -10.8 29.828 -10.633 30.641 C-10.008 32.968 -9.152 34.89 -8 37 C-8.753 37.549 -9.506 38.098 -10.281 38.664 C-13.08 41.069 -14.625 43.218 -16.5 46.375 C-20.402 52.908 -24.487 58.001 -30.812 62.312 C-31.364 62.69 -31.916 63.068 -32.485 63.457 C-36.968 66.46 -41.637 69.05 -46.375 71.625 C-59.017 78.583 -65.274 87.828 -70.562 101.312 C-73.039 107.495 -75.727 112.547 -81.992 115.328 C-87.435 118.353 -89.17 124.271 -91 130 C-92.34 135.273 -93.213 140.621 -94 146 C-90.7 145.67 -87.4 145.34 -84 145 C-83.627 140.373 -83.627 140.373 -85 138 C-83.35 137.67 -81.7 137.34 -80 137 C-76.605 140.678 -77 141.37 -77 147 C-82.94 147 -88.88 147 -95 147 C-95.576 136.204 -93.673 125.815 -87.551 116.68 C-85.722 114.699 -83.822 113.55 -81.5 112.188 C-75.909 108.827 -74.039 104.015 -72 98 C-72 97.67 -72 97.34 -72 97 C-72.539 97.159 -73.078 97.317 -73.633 97.48 C-79.705 98.813 -85.958 99.003 -91.562 96.25 C-95.248 92.848 -97.642 90.085 -98.238 84.949 C-98.42 79.401 -97.758 76.352 -94 72 C-88.834 67.267 -83.266 64.382 -77.014 61.307 C-71.626 58.656 -71.626 58.656 -68 54 C-67.417 50.458 -67.417 50.458 -68 47 C-69.5 44.833 -69.5 44.833 -72 44 C-76.106 44 -77.625 44.66 -80.688 47.438 C-81.451 48.283 -82.214 49.129 -83 50 C-86.204 52.136 -87.019 52.231 -90.688 52.125 C-91.496 52.107 -92.304 52.089 -93.137 52.07 C-93.752 52.047 -94.366 52.024 -95 52 C-94.422 51.34 -93.845 50.68 -93.25 50 C-91.429 47.572 -90.302 45.644 -89.062 42.938 C-87.265 39.266 -85.687 37.011 -82 35 C-79.24 34.692 -76.793 34.811 -74 35 C-74 34.34 -74 33.68 -74 33 C-69.317 34.735 -66.204 38.592 -64 43 C-63.8 44.91 -63.687 46.83 -63.625 48.75 C-63.576 49.776 -63.527 50.802 -63.477 51.859 C-64.169 56.015 -65.86 58.342 -69 61 C-72.245 63.076 -75.626 64.826 -79.062 66.562 C-88.251 70.886 -88.251 70.886 -93.715 79.062 C-94.12 82.591 -94.198 84.544 -92.75 87.875 C-90.611 90.472 -88.964 91.866 -85.582 92.336 C-84.668 92.349 -83.754 92.362 -82.812 92.375 C-81.911 92.403 -81.01 92.432 -80.082 92.461 C-72.41 91.314 -68.004 87.344 -63.312 81.5 C-57.367 74.575 -50.635 70.387 -42.599 66.172 C-29.844 59.615 -29.844 59.615 -21 49 C-20.474 45.05 -20.25 41.25 -20.141 37.266 C-20 34 -20 34 -19 32 C-20.98 32.33 -22.96 32.66 -25 33 C-23.902 24.627 -20.235 19.513 -15 13 C-15.99 13 -16.98 13 -18 13 C-16.298 6.571 -11.201 3.312 -5.75 0.062 C-3 -1 -3 -1 0 0 Z M-19 38 C-19 40.31 -19 42.62 -19 45 C-18.67 45 -18.34 45 -18 45 C-18 42.69 -18 40.38 -18 38 C-18.33 38 -18.66 38 -19 38 Z " fill="#201F20" transform="translate(133,46)"/>
<path d="M0 0 C2 1 2 1 2 1 Z M33 0 C35.985 4.477 35.48 8.749 35 14 C33.75 17.687 33.75 17.687 32 21 C31.312 22.416 30.624 23.833 29.938 25.25 C28.739 27.657 27.503 29.746 26 32 C26.639 32.227 27.279 32.454 27.938 32.688 C41.516 38.507 41.516 38.507 43.949 44.234 C46.795 53.931 46.795 53.931 46 59 C43.875 62 43.875 62 41 64 C37.688 63.812 37.688 63.812 35 63 C35.33 62.01 35.66 61.02 36 60 C35.34 60 34.68 60 34 60 C33.67 56.7 33.34 53.4 33 50 C29.248 48.343 25.736 47.498 21.688 46.875 C20.619 46.707 19.55 46.54 18.449 46.367 C17.237 46.185 17.237 46.185 16 46 C16.589 49.378 17.199 52.752 17.812 56.125 C17.978 57.076 18.144 58.028 18.314 59.008 C19.656 66.366 19.656 66.366 23 73 C24.942 73.914 24.942 73.914 27.062 74 C29.191 74.375 29.191 74.375 31 75 C32.429 77.858 33 79.824 33 83 C32.031 82.979 31.061 82.959 30.062 82.938 C27.125 82.644 27.125 82.644 26 84 C22.947 84.442 20.051 84.465 17 84 C14.25 81.812 14.25 81.812 12 79 C11.113 78.257 10.226 77.515 9.312 76.75 C6.99 73.988 6.685 73.279 6.125 69.938 C4.674 61.61 -0.703 54.394 -6 48 C-7.485 48.495 -7.485 48.495 -9 49 C-9.33 47.35 -9.66 45.7 -10 44 C-10.66 44 -11.32 44 -12 44 C-11.893 43.108 -11.786 42.216 -11.676 41.297 C-11.496 39.541 -11.496 39.541 -11.312 37.75 C-11.185 36.59 -11.057 35.43 -10.926 34.234 C-11.007 30.675 -11.575 29.518 -14 27 C-13.67 26.34 -13.34 25.68 -13 25 C-11.985 26.217 -10.989 27.449 -10 28.688 C-9.443 29.372 -8.886 30.056 -8.312 30.762 C-6.757 33.414 -6.759 34.974 -7 38 C-7 43.728 -3.061 48.398 0.316 52.668 C3.044 56.446 5.18 60.558 7.387 64.656 C7.919 65.43 8.451 66.203 9 67 C9.99 67 10.98 67 12 67 C13.387 68.75 13.387 68.75 14.688 71 C15.124 71.743 15.561 72.485 16.012 73.25 C16.501 74.116 16.501 74.116 17 75 C18.98 74.505 18.98 74.505 21 74 C20.746 73.513 20.492 73.025 20.23 72.523 C15.041 61.833 12.42 48.88 13 37 C13.836 34.988 13.836 34.988 14.938 33.375 C18.005 28.355 17.871 23.737 17 18 C14.94 12.541 11.157 8.884 6.648 5.324 C4.976 3.981 3.49 2.54 2 1 C8.674 2.877 14.173 8.378 18 14 C19.54 17.809 20.241 20.895 20 25 C26.021 21.305 29.691 17.715 32 11 C32.276 9.071 32.484 7.131 32.625 5.188 C32.7 4.212 32.775 3.236 32.852 2.23 C32.901 1.494 32.95 0.758 33 0 Z M15 43 C15 43.66 15 44.32 15 45 C20.94 45.66 26.88 46.32 33 47 C32.67 46.34 32.34 45.68 32 45 C29.097 44.303 29.097 44.303 25.688 43.875 C23.961 43.624 23.961 43.624 22.199 43.367 C18.874 42.924 18.874 42.924 15 43 Z " fill="#1B1A1A" transform="translate(138,88)"/>
<path d="M0 0 C9.666 1.221 17.918 6.463 24 14 C27.901 19.412 27.841 25.563 27 32 C24.938 35.375 24.938 35.375 23.84 37 C20.012 46.116 25.307 63.083 28.802 72.059 C29.51 73.717 30.252 75.36 31 77 C28.525 77.495 28.525 77.495 26 78 C21.266 71.432 17.766 64.672 14.562 57.25 C14.104 56.236 13.646 55.221 13.174 54.176 C12.747 53.195 12.319 52.214 11.879 51.203 C11.493 50.323 11.107 49.443 10.709 48.536 C9.89 45.608 10.123 43.885 11 41 C12 40 12 40 15.438 39.562 C19.041 39.352 19.041 39.352 21 37 C20.677 33.403 20.677 33.403 20 30 C19.67 30 19.34 30 19 30 C19 31.98 19 33.96 19 36 C12.18 35.574 6.97 30.293 2.625 25.438 C-1.37 20.477 -2.597 16.451 -2 10 C-0.38 7.797 0.578 7.096 3.262 6.488 C5.508 6.326 7.754 6.163 10 6 C6.7 4.35 3.4 2.7 0 1 C0 0.67 0 0.34 0 0 Z " fill="#F7F7F7" transform="translate(129,86)"/>
<path d="M0 0 C-2.773 8.406 -6.809 13.809 -13 20 C-12.746 24.568 -12.259 27.713 -9 31 C-6.339 31.624 -6.339 31.624 -3.438 31.625 C1.806 31.806 1.806 31.806 4 34 C4.125 36.625 4.125 36.625 4 39 C-1.655 41.685 -7.146 41.864 -13.147 39.964 C-20.477 36.15 -26.429 25.61 -29 18 C-28.01 17.67 -27.02 17.34 -26 17 C-26 14.03 -26 11.06 -26 8 C-24.68 7.34 -23.36 6.68 -22 6 C-22 5.01 -22 4.02 -22 3 C-15.087 -1.047 -7.742 -0.269 0 0 Z " fill="#1E1C1D" transform="translate(110,144)"/>
<path d="M0 0 C0 0.66 0 1.32 0 2 C1.98 2.33 3.96 2.66 6 3 C5.618 5.555 5.334 6.714 3.336 8.422 C2.689 8.86 2.042 9.298 1.375 9.75 C-1.357 11.891 -1.357 11.891 -2.309 15.094 C-1.923 18.475 -1.432 20.568 1 23 C4.083 23.167 4.083 23.167 7 23 C7.625 25.312 7.625 25.312 8 28 C7.34 28.99 6.68 29.98 6 31 C5.34 31 4.68 31 4 31 C3.567 30.257 3.134 29.515 2.688 28.75 C0.829 25.721 -1.235 24.183 -4 22 C-4.33 21.01 -4.66 20.02 -5 19 C-5.722 19.248 -6.444 19.495 -7.188 19.75 C-10 20 -10 20 -12.812 18.062 C-13.534 17.382 -14.256 16.701 -15 16 C-14.67 17.65 -14.34 19.3 -14 21 C-16 19.438 -16 19.438 -18 17 C-18.25 13.25 -18.25 13.25 -18 10 C-18.99 10.495 -18.99 10.495 -20 11 C-19.34 9.68 -18.68 8.36 -18 7 C-20.179 8.759 -20.937 9.694 -21.512 12.48 C-21.57 13.374 -21.628 14.267 -21.688 15.188 C-21.753 16.089 -21.819 16.99 -21.887 17.918 C-21.924 18.605 -21.961 19.292 -22 20 C-21.01 20 -20.02 20 -19 20 C-17.768 21.524 -16.538 23.049 -15.332 24.594 C-13.979 26.238 -13.979 26.238 -11.312 26.938 C-8.972 27.182 -8.972 27.182 -7 26 C-3.51 25.697 -1.625 25.605 1.375 27.5 C1.911 27.995 2.447 28.49 3 29 C2.67 29.66 2.34 30.32 2 31 C1.278 30.484 0.556 29.969 -0.188 29.438 C-2.856 27.767 -2.856 27.767 -5.562 28.188 C-7.85 28.95 -9.895 29.83 -12 31 C-13.98 29.35 -15.96 27.7 -18 26 C-18 27.98 -18 29.96 -18 32 C-21.161 30.63 -21.993 30.011 -24 27 C-24.66 27 -25.32 27 -26 27 C-26.027 25.375 -26.046 23.75 -26.062 22.125 C-26.074 21.22 -26.086 20.315 -26.098 19.383 C-26 17 -26 17 -25 15 C-26.093 14.918 -27.186 14.835 -28.312 14.75 C-32 14 -32 14 -33.938 12.188 C-35 10 -35 10 -35 6 C-31.594 4.297 -27.708 4.652 -23.945 4.477 C-20.717 3.954 -19.505 2.993 -17 1 C-13.25 0.812 -13.25 0.812 -10 1 C-10.33 1.66 -10.66 2.32 -11 3 C-9.35 3 -7.7 3 -6 3 C-6.33 2.34 -6.66 1.68 -7 1 C-4 0 -4 0 0 0 Z " fill="#E7E7E7" transform="translate(174,36)"/>
<path d="M0 0 C2 2 2 2 2 6 C2.928 6.289 3.856 6.577 4.812 6.875 C8 8 8 8 11 10 C11.402 10.959 11.402 10.959 11.812 11.938 C13.514 14.893 15.995 15.529 19 17 C19.495 18.485 19.495 18.485 20 20 C19.34 19.835 18.68 19.67 18 19.5 C12.581 18.597 7.349 18.663 2 20 C6.75 16 6.75 16 9 16 C8.505 14.515 8.505 14.515 8 13 C-0.909 9.761 -8.764 11.443 -17.551 14.312 C-19.989 14.997 -22.23 15.297 -24.75 15.5 C-27.916 15.756 -29.283 16.142 -32.25 17.625 C-35 19 -35 19 -37.129 18.336 C-41.607 17.812 -44.776 19.97 -48.688 22 C-50.209 22.778 -51.733 23.549 -53.262 24.312 C-53.932 24.659 -54.602 25.006 -55.292 25.363 C-55.855 25.573 -56.419 25.784 -57 26 C-57.66 25.67 -58.32 25.34 -59 25 C-56.525 23.515 -56.525 23.515 -54 22 C-56.563 21.946 -59.124 21.906 -61.688 21.875 C-62.409 21.858 -63.13 21.841 -63.873 21.824 C-68.13 21.785 -71.136 22.303 -75 24 C-77.282 24.413 -79.576 24.763 -81.875 25.062 C-83.048 25.218 -84.221 25.374 -85.43 25.535 C-86.608 25.689 -87.786 25.842 -89 26 C-91.334 26.33 -93.667 26.663 -96 27 C-85.387 18.535 -73.668 16.403 -60.492 17.711 C-59.259 17.854 -59.259 17.854 -58 18 C-57.505 16.515 -57.505 16.515 -57 15 C-56.34 14.67 -55.68 14.34 -55 14 C-55 14.99 -55 15.98 -55 17 C-54.068 16.602 -53.136 16.203 -52.176 15.793 C-44.91 12.75 -37.876 10.248 -30.129 8.66 C-26.954 7.99 -23.872 7.13 -20.75 6.25 C-15.435 4.886 -11.377 5.014 -6 6 C-5.67 5.34 -5.34 4.68 -5 4 C-4.01 4.33 -3.02 4.66 -2 5 C-1.67 4.01 -1.34 3.02 -1 2 C-1 2.99 -1 3.98 -1 5 C-0.34 5 0.32 5 1 5 C0.505 2.525 0.505 2.525 0 0 Z " fill="#211F20" transform="translate(170,166)"/>
<path d="M0 0 C0.99 0.33 1.98 0.66 3 1 C2 4 2 4 -0.375 6.312 C-4.097 10.123 -5.805 13.18 -6.375 18.5 C-5.851 23.395 -4.519 26.566 -0.918 29.965 C3.315 32.917 7.922 34.458 12.762 36.18 C18.06 38.205 20.708 40.363 24 45 C22.783 41.35 20.711 39.579 18 37 C16.577 35.631 15.161 34.256 13.75 32.875 C13.064 32.212 12.378 31.55 11.672 30.867 C10 29 10 29 9 26 C17.431 29.972 25.839 35.442 29.312 44.375 C29.653 45.674 29.653 45.674 30 47 C30.33 45.35 30.66 43.7 31 42 C31.33 42 31.66 42 32 42 C33.758 51.499 33.758 51.499 31.375 55.875 C29.131 58.827 27.035 60.893 24 63 C23.925 62.443 23.85 61.886 23.773 61.312 C22.479 53.797 19.638 48.827 13.582 44.121 C7.863 40.3 1.964 37.545 -4.469 35.141 C-6.967 34.015 -8.318 33.135 -10 31 C-12.457 23.628 -11.251 15.938 -8 9 C-5.803 5.274 -3.649 2.433 0 0 Z " fill="#1C1A1B" transform="translate(135,48)"/>
<path d="M0 0 C-2 4 -2 4 -3.051 5.742 C-5.437 11.419 -4.689 18.82 -2.875 24.562 C-0.616 27.499 1.808 29.156 5 31 C4.567 30.443 4.134 29.886 3.688 29.312 C-1.153 22.679 -2.849 17.192 -2 9 C-0.5 5.438 -0.5 5.438 1 3 C2 5 2 5 1.812 8.125 C2.048 12.992 2.91 16.273 6 20 C8.784 22.284 11.746 24.305 14.784 26.236 C20.176 29.742 23.916 33.747 26 40 C26.068 41.728 26.085 43.458 26.062 45.188 C26.053 46.089 26.044 46.99 26.035 47.918 C26.024 48.605 26.012 49.292 26 50 C25.67 50 25.34 50 25 50 C24.853 49.287 24.706 48.574 24.555 47.84 C22.227 37.9 18.645 33.549 10.125 28.062 C8.424 27.03 6.717 26.005 5 25 C9.758 30.711 9.758 30.711 15.25 35.688 C18.158 38.133 19.618 39.468 21 43 C21.234 46.681 21.174 50.317 21 54 C20.67 54 20.34 54 20 54 C19.974 53.42 19.948 52.84 19.922 52.242 C19.526 46.792 18.853 43.135 15 39 C10.197 35.997 5.065 34.02 -0.25 32.125 C-5.185 30.221 -8.193 27.465 -11 23 C-12.685 17.946 -12.58 13.715 -10.375 8.875 C-8.268 5.008 -4.804 0 0 0 Z " fill="#ECECEC" transform="translate(140,50)"/>
<path d="M0 0 C-0.603 0.315 -1.207 0.629 -1.828 0.953 C-6.094 3.237 -9.815 5.261 -13 9 C-12.402 8.649 -11.804 8.299 -11.188 7.938 C-9 7 -9 7 -6 8 C-6.398 8.606 -6.797 9.212 -7.207 9.836 C-10.928 15.721 -13.359 21.235 -15 28 C-14.01 26.68 -13.02 25.36 -12 24 C-11.879 24.603 -11.758 25.207 -11.633 25.828 C-11.381 27.027 -11.381 27.027 -11.125 28.25 C-10.881 29.433 -10.881 29.433 -10.633 30.641 C-10.008 32.968 -9.152 34.89 -8 37 C-8.753 37.549 -9.506 38.098 -10.281 38.664 C-13.08 41.069 -14.625 43.218 -16.5 46.375 C-24.014 58.958 -35.854 66.894 -49 73 C-49.66 73 -50.32 73 -51 73 C-51 72.34 -51 71.68 -51 71 C-49.949 70.432 -48.899 69.863 -47.816 69.277 C-40.092 65.05 -32.6 60.901 -26 55 C-25.01 54.175 -24.02 53.35 -23 52.5 C-19.689 48.372 -20.279 42.306 -20.141 37.266 C-20 34 -20 34 -19 32 C-21.97 32.495 -21.97 32.495 -25 33 C-23.902 24.627 -20.235 19.513 -15 13 C-15.99 13 -16.98 13 -18 13 C-16.298 6.571 -11.201 3.312 -5.75 0.062 C-3 -1 -3 -1 0 0 Z M-19 38 C-19 40.31 -19 42.62 -19 45 C-18.67 45 -18.34 45 -18 45 C-18 42.69 -18 40.38 -18 38 C-18.33 38 -18.66 38 -19 38 Z " fill="#1F1E1E" transform="translate(133,46)"/>
<path d="M0 0 C0.66 0.33 1.32 0.66 2 1 C1.01 2.485 1.01 2.485 0 4 C0.33 4.66 0.66 5.32 1 6 C1 8 1 10 1 12 C1.33 12.33 1.66 12.66 2 13 C2 11.35 2 9.7 2 8 C2.536 8.784 3.072 9.568 3.625 10.375 C6.302 13.334 8.184 14.046 12 15 C12.33 14.01 12.66 13.02 13 12 C13.371 12.887 13.743 13.774 14.125 14.688 C16.331 18.584 18.461 20.326 22 23 C21.67 23.99 21.34 24.98 21 26 C20.464 25.34 19.928 24.68 19.375 24 C17.138 21.738 17.138 21.738 14.062 21.688 C11.053 21.87 11.053 21.87 8.562 22.875 C5.334 23.032 4.722 22.244 2.312 20.188 C0.5 18.496 -1.247 16.753 -3 15 C-3.99 15.495 -3.99 15.495 -5 16 C-5.347 10.332 -4.526 6.954 -2 2 C-1.34 1.34 -0.68 0.68 0 0 Z M26 19 C26.66 19.66 27.32 20.32 28 21 C27.83 24.221 27.186 25.763 25.188 28.312 C23 30 23 30 19 30 C18.34 28.35 17.68 26.7 17 25 C15.02 25 13.04 25 11 25 C10.227 26.771 10.227 26.771 10 29 C11.115 31.301 11.115 31.301 12.812 33.5 C16.146 38.124 18.324 41.162 18 47 C16.68 46.67 15.36 46.34 14 46 C14 45.01 14 44.02 14 43 C14.66 43 15.32 43 16 43 C15.094 41.39 14.175 39.787 13.25 38.188 C12.74 37.294 12.229 36.401 11.703 35.48 C10.014 33.021 8.478 31.622 6 30 C6.904 27.214 7.739 25.279 9.75 23.125 C12.905 21.548 14.658 22.025 18 23 C20.375 24.562 20.375 24.562 22 26 C24.5 23.826 25.436 22.27 26 19 Z " fill="#211F20" transform="translate(156,41)"/>
<path d="M0 0 C-1.127 3.38 -1.892 3.89 -4.625 6 C-12.036 12.354 -15.858 20.449 -19.5 29.312 C-22.042 35.47 -24.323 39.358 -30 43 C-30.665 43.258 -31.33 43.516 -32.016 43.781 C-37.039 46.867 -39.133 54.637 -40.561 60.177 C-41.562 64.756 -42.321 69.364 -43 74 C-38.05 73.505 -38.05 73.505 -33 73 C-32.627 68.373 -32.627 68.373 -34 66 C-31.525 65.505 -31.525 65.505 -29 65 C-25.605 68.678 -26 69.37 -26 75 C-31.94 75 -37.88 75 -44 75 C-44.576 64.204 -42.673 53.815 -36.551 44.68 C-34.722 42.699 -32.822 41.55 -30.5 40.188 C-24.883 36.821 -23.122 31.993 -21 26 C-24.95 23.367 -27.594 23.921 -32.211 24.125 C-35.215 23.99 -37.29 23.261 -40 22 C-40 21.67 -40 21.34 -40 21 C-38.623 20.961 -38.623 20.961 -37.219 20.922 C-35.992 20.865 -34.764 20.808 -33.5 20.75 C-31.69 20.68 -31.69 20.68 -29.844 20.609 C-21.462 19.281 -16.608 15.156 -11.188 8.875 C-10.079 7.62 -8.969 6.367 -7.855 5.117 C-7.377 4.567 -6.899 4.016 -6.407 3.449 C-4.444 1.427 -2.902 0 0 0 Z " fill="#393839" transform="translate(82,118)"/>
<path d="M0 0 C0.653 0.22 1.305 0.44 1.978 0.667 C9.299 2.928 15.585 3.239 23.188 2.688 C24.235 2.626 25.282 2.565 26.361 2.502 C28.909 2.351 31.454 2.183 34 2 C34.495 4.475 34.495 4.475 35 7 C33.02 6.67 31.04 6.34 29 6 C29 5.34 29 4.68 29 4 C26.532 5.152 24.952 6.048 23 8 C19.375 8.125 19.375 8.125 16 8 C16.66 7.34 17.32 6.68 18 6 C13.765 5.573 13.765 5.573 10.203 7.512 C6.466 10.036 2.447 9.052 -1.906 8.812 C-5.323 9.02 -6.547 9.692 -9 12 C-10.32 11.01 -11.64 10.02 -13 9 C-10.36 7.68 -7.72 6.36 -5 5 C-5 4.67 -5 4.34 -5 4 C-3.35 3.67 -1.7 3.34 0 3 C0 2.01 0 1.02 0 0 Z M35 7 C35.66 7.33 36.32 7.66 37 8 C36.67 11.3 36.34 14.6 36 18 C35.34 18 34.68 18 34 18 C34 17.34 34 16.68 34 16 C33.01 16.33 32.02 16.66 31 17 C31 19.31 31 21.62 31 24 C31.99 24 32.98 24 34 24 C34.66 23.34 35.32 22.68 36 22 C36.33 23.98 36.66 25.96 37 28 C30.672 28.358 30.672 28.358 28.125 27 C26.27 23.702 25.284 20.717 26 17 C27.861 14.829 29.814 13.232 32.117 11.543 C34.279 10.051 34.279 10.051 35 7 Z " fill="#2C2B2C" transform="translate(145,32)"/>
<path d="M0 0 C6.204 4.015 10.528 8.424 14 15 C14 15.66 14 16.32 14 17 C13.34 17 12.68 17 12 17 C12.495 18.485 12.495 18.485 13 20 C13.669 27.403 13.654 33.93 9 40 C6.834 42.248 4.622 44.295 2 46 C1.34 46 0.68 46 0 46 C-0.208 45.143 -0.415 44.286 -0.629 43.402 C-3.18 33.933 -6.303 28.756 -14.625 23.625 C-17.604 22.191 -19.762 21.415 -23 21 C-23.99 20.814 -24.98 20.629 -26 20.438 C-28.724 20.04 -31.254 19.919 -34 20 C-33.67 19.01 -33.34 18.02 -33 17 C-21.568 17.04 -12.866 20.689 -4.434 28.434 C-0.533 32.695 1.435 37.213 2 43 C2.967 41.945 3.923 40.881 4.875 39.812 C5.409 39.221 5.942 38.629 6.492 38.02 C10.595 32.525 10.876 26.616 10 20 C8.099 14.576 5.518 9.681 1 6 C1.66 5.67 2.32 5.34 3 5 C2.505 4.546 2.01 4.093 1.5 3.625 C0 2 0 2 0 0 Z " fill="#E9E9E9" transform="translate(158,67)"/>
<path d="M0 0 C6.939 6.757 6.939 6.757 7.125 10.562 C7.084 11.367 7.042 12.171 7 13 C7 17.815 9.838 21.941 12.75 25.562 C18.003 32.26 25 43.352 25 52 C23.125 51.062 23.125 51.062 21 49 C20.535 47.219 20.535 47.219 20.188 45.062 C18.665 36.681 13.344 29.451 8 23 C7.01 23.33 6.02 23.66 5 24 C4.67 22.35 4.34 20.7 4 19 C3.34 19 2.68 19 2 19 C2.16 17.662 2.16 17.662 2.324 16.297 C2.504 14.541 2.504 14.541 2.688 12.75 C2.815 11.59 2.943 10.43 3.074 9.234 C2.991 5.618 2.344 4.627 0 2 C0 1.34 0 0.68 0 0 Z M44 51 C45.886 53.389 47 54.919 47 58 C46.031 57.979 45.061 57.959 44.062 57.938 C41.125 57.644 41.125 57.644 40 59 C36.946 59.442 34.049 59.487 31 59 C27.938 56.5 27.938 56.5 26 54 C26.33 53.34 26.66 52.68 27 52 C27.598 52.639 28.196 53.279 28.812 53.938 C30.908 56.203 30.908 56.203 34 57 C34.33 55.35 34.66 53.7 35 52 C38.327 50.891 40.519 50.565 44 51 Z " fill="#D2D2D2" transform="translate(124,113)"/>
<path d="M0 0 C2.444 1.239 4.88 2.49 7.312 3.75 C8.003 4.098 8.693 4.446 9.404 4.805 C14.89 7.667 17.679 10.365 19.75 16.312 C21.069 20.526 21.211 23.676 20 28 C18.438 29.938 18.438 29.938 17 31 C13.125 29.25 13.125 29.25 12 27 C11.97 24.432 12.067 21.879 12.16 19.312 C12.241 16.803 12.241 16.803 10 15 C9.875 11.875 9.875 11.875 10 9 C8.701 8.629 8.701 8.629 7.375 8.25 C3.817 6.932 1.077 5.198 -2 3 C-1.34 2.01 -0.68 1.02 0 0 Z " fill="#E4E4E4" transform="translate(162,120)"/>
<path d="M0 0 C1 2 1 2 0.812 5.125 C1.048 9.992 1.91 13.273 5 17 C7.784 19.284 10.746 21.305 13.784 23.236 C19.176 26.742 22.916 30.747 25 37 C25.068 38.728 25.085 40.458 25.062 42.188 C25.053 43.089 25.044 43.99 25.035 44.918 C25.024 45.605 25.012 46.292 25 47 C24.67 47 24.34 47 24 47 C23.78 45.931 23.78 45.931 23.555 44.84 C21.227 34.9 17.645 30.549 9.125 25.062 C7.424 24.03 5.717 23.005 4 22 C4.495 22.619 4.99 23.237 5.5 23.875 C7 26 7 26 7 28 C2.544 26.515 0.234 22.936 -2 19 C-3.799 13.412 -3.768 7.824 -1.5 2.438 C-1.005 1.633 -0.51 0.829 0 0 Z M6 30 C6.66 30 7.32 30 8 30 C8 30.66 8 31.32 8 32 C7.34 32 6.68 32 6 32 C6 31.34 6 30.68 6 30 Z " fill="#ECECEC" transform="translate(141,53)"/>
<path d="M0 0 C-0.557 0.268 -1.114 0.536 -1.688 0.812 C-4.197 2.101 -6.593 3.529 -9 5 C-8.67 5 -8.34 5 -8 5 C-7.67 4.67 -7.34 4.34 -7 4 C-2.883 3.457 1.288 3.042 4.996 5.117 C6.625 6.5 6.625 6.5 9 9 C8.67 9.99 8.34 10.98 8 12 C7.464 11.484 6.927 10.969 6.375 10.438 C4.044 8.746 4.044 8.746 1.062 9 C-2.715 10.233 -4.363 12.078 -7 15 C-10.204 17.136 -11.019 17.231 -14.688 17.125 C-15.9 17.098 -15.9 17.098 -17.137 17.07 C-17.752 17.047 -18.366 17.024 -19 17 C-18.422 16.34 -17.845 15.68 -17.25 15 C-15.429 12.572 -14.302 10.644 -13.062 7.938 C-10.117 1.876 -6.908 -0.643 0 0 Z " fill="#1B191A" transform="translate(57,81)"/>
<path d="M0 0 C-0.603 0.315 -1.207 0.629 -1.828 0.953 C-6.094 3.237 -9.815 5.261 -13 9 C-12.402 8.649 -11.804 8.299 -11.188 7.938 C-9 7 -9 7 -6 8 C-6.398 8.617 -6.797 9.235 -7.207 9.871 C-10.682 15.425 -13.26 20.68 -15 27 C-15.66 27 -16.32 27 -17 27 C-17.33 27.99 -17.66 28.98 -18 30 C-19.65 30.33 -21.3 30.66 -23 31 C-23.757 26.742 -23.519 24.849 -21.219 21.086 C-19.203 18.339 -17.145 15.647 -15 13 C-15.99 13 -16.98 13 -18 13 C-16.298 6.571 -11.201 3.312 -5.75 0.062 C-3 -1 -3 -1 0 0 Z " fill="#191718" transform="translate(133,46)"/>
<path d="M0 0 C8.431 3.972 16.839 9.442 20.312 18.375 C20.653 19.674 20.653 19.674 21 21 C21.33 19.35 21.66 17.7 22 16 C22.33 16 22.66 16 23 16 C24.758 25.499 24.758 25.499 22.375 29.875 C20.131 32.827 18.035 34.893 15 37 C15.165 36.072 15.33 35.144 15.5 34.188 C16.354 27.913 17.205 21.61 14.5 15.75 C11.814 12.796 8.958 10.244 5.906 7.676 C3.615 5.661 1.758 3.491 0 1 C0 0.67 0 0.34 0 0 Z " fill="#1C1A1B" transform="translate(144,74)"/>
<path d="M0 0 C0 0.99 0 1.98 0 3 C-1.052 3.474 -2.104 3.949 -3.188 4.438 C-7.934 7.195 -10.107 10.928 -12 16 C-12.641 19.134 -13.108 22.218 -13.445 25.398 C-14.052 28.246 -14.756 29.217 -17 31 C-17.33 29.68 -17.66 28.36 -18 27 C-19.32 30.96 -20.64 34.92 -22 39 C-22.33 39 -22.66 39 -23 39 C-22.348 28.14 -18.202 17.86 -12 9 C-14.31 9.66 -16.62 10.32 -19 11 C-17.526 7.138 -15.547 5.818 -12 3.812 C-11.113 3.303 -10.226 2.794 -9.312 2.27 C-5.854 0.371 -3.961 -0.104 0 0 Z M-24 39 C-23.67 39 -23.34 39 -23 39 C-23 41.31 -23 43.62 -23 46 C-23.33 46 -23.66 46 -24 46 C-24 43.69 -24 41.38 -24 39 Z " fill="#D7D7D7" transform="translate(138,45)"/>
<path d="M0 0 C0.66 0 1.32 0 2 0 C3.17 2.34 3.166 3.834 3.188 6.438 C3.202 7.22 3.216 8.002 3.23 8.809 C3 11 3 11 1 14 C4.205 20.142 7.783 26.366 13 31 C16.407 32.068 19.451 32.247 23 32 C23 32.66 23 33.32 23 34 C21.438 34.055 19.875 34.093 18.312 34.125 C17.007 34.16 17.007 34.16 15.676 34.195 C11.882 33.918 9.285 33.377 6.609 30.51 C5.107 28.612 3.701 26.67 2.312 24.688 C1.827 24.023 1.342 23.358 0.842 22.674 C-1.621 19.239 -3.66 16.051 -5 12 C-4.01 11.67 -3.02 11.34 -2 11 C-2.023 10.374 -2.046 9.747 -2.07 9.102 C-2.088 8.284 -2.106 7.467 -2.125 6.625 C-2.148 5.813 -2.171 5.001 -2.195 4.164 C-2 2 -2 2 0 0 Z " fill="#232223" transform="translate(86,150)"/>
<path d="M0 0 C0.495 1.485 0.495 1.485 1 3 C1.99 3 2.98 3 4 3 C4 3.99 4 4.98 4 6 C-0.661 7.554 -5.45 7.395 -10.336 7.621 C-13.731 7.972 -15.901 8.697 -19 10 C-21.282 10.413 -23.576 10.763 -25.875 11.062 C-27.048 11.218 -28.221 11.374 -29.43 11.535 C-30.608 11.689 -31.786 11.842 -33 12 C-35.334 12.33 -37.667 12.663 -40 13 C-29.387 4.535 -17.668 2.403 -4.492 3.711 C-3.259 3.854 -3.259 3.854 -2 4 C-1.67 3.01 -1.34 2.02 -1 1 C-0.67 0.67 -0.34 0.34 0 0 Z " fill="#151414" transform="translate(114,180)"/>
<path d="M0 0 C4.683 1.735 7.796 5.592 10 10 C11.045 20.102 11.045 20.102 8.953 23.902 C7.625 25.25 7.625 25.25 5 27 C4.34 27 3.68 27 3 27 C3.303 26.432 3.606 25.863 3.918 25.277 C5.639 21.654 6.657 18.002 7 14 C5.502 10.294 4.343 9.229 1 7 C-1.376 6.646 -1.376 6.646 -3.938 6.688 C-5.219 6.662 -5.219 6.662 -6.527 6.637 C-9.442 7.065 -10.813 8.077 -13 10 C-11.538 6.147 -9.687 4.76 -6 3 C-2.688 2.312 -2.688 2.312 0 2 C0 1.34 0 0.68 0 0 Z M-2 28 C-1.01 28.495 -1.01 28.495 0 29 C-0.99 29.495 -0.99 29.495 -2 30 C-2 29.34 -2 28.68 -2 28 Z M1 28 C1.33 28.66 1.66 29.32 2 30 C1.34 29.67 0.68 29.34 0 29 C0.33 28.67 0.66 28.34 1 28 Z " fill="#141313" transform="translate(59,79)"/>
<path d="M0 0 C0.66 0 1.32 0 2 0 C0.738 5.891 -2.239 8.665 -7 12 C-7.672 12.271 -8.343 12.541 -9.035 12.82 C-14.057 15.835 -16.144 23.678 -17.561 29.177 C-18.562 33.756 -19.321 38.364 -20 43 C-15.05 42.505 -15.05 42.505 -10 42 C-9.627 37.373 -9.627 37.373 -11 35 C-8.525 34.505 -8.525 34.505 -6 34 C-2.605 37.678 -3 38.37 -3 44 C-8.94 44 -14.88 44 -21 44 C-21.575 33.225 -19.69 22.811 -13.559 13.699 C-11.102 11.021 -8.117 9.324 -5.027 7.453 C-2.241 5.456 -1.137 3.184 0 0 Z " fill="#222121" transform="translate(59,149)"/>
<path d="M0 0 C0 0.99 0 1.98 0 3 C-1.539 3.895 -1.539 3.895 -3.625 4.812 C-10.882 9.077 -12.823 17.928 -15.035 25.582 C-15.749 28.379 -16.41 31.174 -17 34 C-15.35 34 -13.7 34 -12 34 C-12.66 32.35 -13.32 30.7 -14 29 C-12.062 29.75 -12.062 29.75 -10 31 C-9.188 33.062 -9.188 33.062 -9 35 C-10 36 -10 36 -12.066 36.098 C-12.89 36.086 -13.714 36.074 -14.562 36.062 C-15.389 36.053 -16.215 36.044 -17.066 36.035 C-17.704 36.024 -18.343 36.012 -19 36 C-19.783 26.013 -16.54 13.773 -10 6 C-6.825 3.649 -3.537 1.751 0 0 Z " fill="#DADADA" transform="translate(58,156)"/>
<path d="M0 0 C2.97 0.99 5.94 1.98 9 3 C9 2.34 9 1.68 9 1 C9.99 0.67 10.98 0.34 12 0 C12 3.3 12 6.6 12 10 C12.99 10 13.98 10 15 10 C20 15.349 20 15.349 20 18 C18.68 17.34 17.36 16.68 16 16 C16 17.98 16 19.96 16 22 C12.839 20.63 12.007 20.011 10 17 C9.34 17 8.68 17 8 17 C7.973 15.375 7.954 13.75 7.938 12.125 C7.926 11.22 7.914 10.315 7.902 9.383 C8 7 8 7 9 5 C7.886 4.918 6.773 4.835 5.625 4.75 C4.429 4.502 3.232 4.255 2 4 C1.34 2.68 0.68 1.36 0 0 Z " fill="#F2F2F2" transform="translate(140,46)"/>
<path d="M0 0 C1.98 0 3.96 0 6 0 C6.33 1.65 6.66 3.3 7 5 C5.35 4.67 3.7 4.34 2 4 C2 3.34 2 2.68 2 2 C1.34 1.34 0.68 0.68 0 0 Z M7 5 C7.66 5.33 8.32 5.66 9 6 C8.67 9.3 8.34 12.6 8 16 C7.34 16 6.68 16 6 16 C6 15.34 6 14.68 6 14 C5.01 14.33 4.02 14.66 3 15 C3 17.31 3 19.62 3 22 C3.99 22 4.98 22 6 22 C6.66 21.34 7.32 20.68 8 20 C8.33 21.98 8.66 23.96 9 26 C2.672 26.358 2.672 26.358 0.125 25 C-1.73 21.702 -2.716 18.717 -2 15 C-0.139 12.829 1.814 11.232 4.117 9.543 C6.279 8.051 6.279 8.051 7 5 Z " fill="#323131" transform="translate(173,34)"/>
<path d="M0 0 C0.66 0.66 1.32 1.32 2 2 C1.83 5.221 1.186 6.763 -0.812 9.312 C-3 11 -3 11 -7 11 C-7.66 9.35 -8.32 7.7 -9 6 C-10.98 6 -12.96 6 -15 6 C-15.773 7.771 -15.773 7.771 -16 10 C-14.885 12.301 -14.885 12.301 -13.188 14.5 C-9.854 19.124 -7.676 22.162 -8 28 C-9.32 27.67 -10.64 27.34 -12 27 C-12 26.01 -12 25.02 -12 24 C-11.34 24 -10.68 24 -10 24 C-10.906 22.39 -11.825 20.787 -12.75 19.188 C-13.26 18.294 -13.771 17.401 -14.297 16.48 C-15.986 14.021 -17.522 12.622 -20 11 C-19.096 8.214 -18.261 6.279 -16.25 4.125 C-13.095 2.548 -11.342 3.025 -8 4 C-5.625 5.562 -5.625 5.562 -4 7 C-1.5 4.826 -0.564 3.27 0 0 Z " fill="#232223" transform="translate(182,60)"/>
<path d="M0 0 C6.204 4.015 10.528 8.424 14 15 C14 15.66 14 16.32 14 17 C13.34 17 12.68 17 12 17 C12.33 17.99 12.66 18.98 13 20 C13.069 22.061 13.085 24.125 13.062 26.188 C13.053 27.274 13.044 28.361 13.035 29.48 C13.024 30.312 13.012 31.143 13 32 C11.515 32.495 11.515 32.495 10 33 C10.058 32.178 10.116 31.355 10.176 30.508 C10.557 21.078 8.988 14.527 2.688 7.375 C2.131 6.921 1.574 6.468 1 6 C1.66 5.67 2.32 5.34 3 5 C2.257 4.319 2.257 4.319 1.5 3.625 C0 2 0 2 0 0 Z " fill="#E6E5E5" transform="translate(158,67)"/>
<path d="M0 0 C0.848 0.003 1.695 0.006 2.568 0.01 C3.449 0.018 4.331 0.027 5.238 0.035 C6.577 0.042 6.577 0.042 7.943 0.049 C10.146 0.061 12.348 0.077 14.551 0.098 C14.551 0.428 14.551 0.758 14.551 1.098 C13.596 1.123 12.64 1.149 11.656 1.176 C1.819 1.607 -7.895 2.118 -15.199 9.535 C-15.998 10.432 -15.998 10.432 -16.812 11.348 C-19.374 14.086 -22.347 16.008 -25.449 18.098 C-26.109 17.768 -26.769 17.438 -27.449 17.098 C-9.417 -0.063 -9.417 -0.063 0 0 Z M-29.449 18.098 C-28.789 18.428 -28.129 18.758 -27.449 19.098 C-28.254 19.386 -29.058 19.675 -29.887 19.973 C-32.582 20.83 -32.582 20.83 -33.449 23.098 C-34.439 22.438 -35.429 21.778 -36.449 21.098 C-34.146 20.031 -31.809 19.033 -29.449 18.098 Z " fill="#D4D4D4" transform="translate(99.44921875,141.90234375)"/>
<path d="M0 0 C1.886 2.389 3 3.919 3 7 C2.031 6.979 1.061 6.959 0.062 6.938 C-2.875 6.644 -2.875 6.644 -4 8 C-5.519 8.072 -7.042 8.084 -8.562 8.062 C-9.389 8.053 -10.215 8.044 -11.066 8.035 C-11.704 8.024 -12.343 8.012 -13 8 C-13 7.34 -13 6.68 -13 6 C-12.01 6 -11.02 6 -10 6 C-9.67 4.35 -9.34 2.7 -9 1 C-5.673 -0.109 -3.481 -0.435 0 0 Z " fill="#DFDFDF" transform="translate(168,164)"/>
<path d="M0 0 C0 0.99 0 1.98 0 3 C-1.052 3.557 -2.104 4.114 -3.188 4.688 C-6.74 6.702 -9.249 8.999 -12 12 C-12 11.01 -12 10.02 -12 9 C-14.31 9.66 -16.62 10.32 -19 11 C-17.526 7.138 -15.547 5.818 -12 3.812 C-11.113 3.303 -10.226 2.794 -9.312 2.27 C-5.854 0.371 -3.961 -0.104 0 0 Z " fill="#EBEBEB" transform="translate(138,45)"/>
<path d="M0 0 C2.144 1.929 3.338 3.583 4.812 6.125 C6.758 9.29 6.758 9.29 10.25 9.875 C11.611 9.937 11.611 9.937 13 10 C12.34 10.66 11.68 11.32 11 12 C10.357 14.069 10.357 14.069 10 16 C6.29 15.443 4.74 14.052 2.312 11.25 C1.711 10.575 1.109 9.899 0.488 9.203 C-1.184 6.727 -1.788 4.974 -2 2 C-1.34 1.34 -0.68 0.68 0 0 Z " fill="#1C1B1B" transform="translate(148,154)"/>
<path d="M0 0 C2 2 2 2 2.25 5.438 C2 9 2 9 0 12 C-0.66 11.67 -1.32 11.34 -2 11 C-1.34 7.37 -0.68 3.74 0 0 Z M-3 12 C-3 15 -3 15 -3 15 Z M-2 15 C0.5 17.312 0.5 17.312 3 20 C3 20.99 3 21.98 3 23 C-2 17.25 -2 17.25 -2 15 Z M4 23 C9 28 9 28 10.344 29.625 C12.594 31.493 14.299 31.5 17.188 31.688 C18.089 31.753 18.99 31.819 19.918 31.887 C20.605 31.924 21.292 31.961 22 32 C22 32.66 22 33.32 22 34 C18.512 34.579 15.472 34.743 12 34 C8.74 31.422 6.253 28.487 4 25 C4 24.34 4 23.68 4 23 Z " fill="#D5D5D5" transform="translate(87,150)"/>
<path d="M0 0 C2 3 2 3 3.062 6.375 C5.037 11.269 9.422 12.917 14 15 C11 16 11 16 8.062 15.375 C5.052 14.695 5.052 14.695 2.938 16.188 C1.978 17.085 1.978 17.085 1 18 C0.093 18.722 -0.815 19.444 -1.75 20.188 C-2.864 21.085 -2.864 21.085 -4 22 C-4 17.684 -1.867 16.072 1 13 C1.66 13 2.32 13 3 13 C2.505 12.526 2.01 12.051 1.5 11.562 C-0.705 7.796 -0.246 4.265 0 0 Z " fill="#EEEDED" transform="translate(122,70)"/>
<path d="M0 0 C0.33 0 0.66 0 1 0 C1.105 0.605 1.211 1.209 1.32 1.833 C1.808 4.598 2.31 7.362 2.812 10.125 C2.978 11.076 3.144 12.028 3.314 13.008 C4.661 20.364 4.661 20.364 8 27 C9.991 28.124 9.991 28.124 12.188 28.375 C14.075 28.684 14.075 28.684 16 29 C16 29.99 16 30.98 16 32 C15.01 31.67 14.02 31.34 13 31 C11.608 30.784 10.212 30.598 8.812 30.438 C7.554 30.293 6.296 30.149 5 30 C5 29.01 5 28.02 5 27 C4.221 24.442 3.408 21.91 2.562 19.375 C-2.248 4.496 -2.248 4.496 0 0 Z " fill="#222222" transform="translate(153,134)"/>
<path d="M0 0 C0 4.178 -2.197 6.163 -5 9 C-23.85 24 -23.85 24 -31 24 C-31 23.34 -31 22.68 -31 22 C-29.424 21.147 -29.424 21.147 -27.816 20.277 C-13.411 12.518 -13.411 12.518 -2 1 C-1.34 0.67 -0.68 0.34 0 0 Z " fill="#242323" transform="translate(113,95)"/>
<path d="M0 0 C1.75 2.438 1.75 2.438 1.75 8.438 C-4.19 8.438 -10.13 8.438 -16.25 8.438 C-16.25 8.107 -16.25 7.778 -16.25 7.438 C-10.805 6.942 -10.805 6.942 -5.25 6.438 C-4.877 1.81 -4.877 1.81 -6.25 -0.562 C-3.365 -1.799 -2.644 -1.836 0 0 Z " fill="#3B3A3A" transform="translate(54.25,184.5625)"/>
<path d="M0 0 C1.98 0.495 1.98 0.495 4 1 C3.67 2.98 3.34 4.96 3 7 C2.01 7.33 1.02 7.66 0 8 C-1.125 2.25 -1.125 2.25 0 0 Z M-2.625 4.5 C-2.089 4.995 -1.553 5.49 -1 6 C-1.33 6.66 -1.66 7.32 -2 8 C-2.722 7.484 -3.444 6.969 -4.188 6.438 C-6.856 4.767 -6.856 4.767 -9.562 5.188 C-11.85 5.95 -13.895 6.83 -16 8 C-16.99 7.01 -17.98 6.02 -19 5 C-13.673 3.224 -7.664 1.317 -2.625 4.5 Z " fill="#ECECEC" transform="translate(178,59)"/>
<path d="M0 0 C0.33 0.66 0.66 1.32 1 2 C0.34 1.67 -0.32 1.34 -1 1 C-0.67 0.67 -0.34 0.34 0 0 Z M-4 1 C-3.01 1.495 -3.01 1.495 -2 2 C-2.99 2.495 -2.99 2.495 -4 3 C-4 2.34 -4 1.68 -4 1 Z M-8 3 C-7.34 3.33 -6.68 3.66 -6 4 C-9.284 7.678 -12.628 9.814 -17 12 C-17.66 11.67 -18.32 11.34 -19 11 C-15.638 7.341 -12.639 4.856 -8 3 Z M-5 3 C-4.67 3.66 -4.34 4.32 -4 5 C-4.66 4.67 -5.32 4.34 -6 4 C-5.67 3.67 -5.34 3.34 -5 3 Z M-20 9 C-19.01 9.495 -19.01 9.495 -18 10 C-18.99 10.495 -18.99 10.495 -20 11 C-20 10.34 -20 9.68 -20 9 Z M-25 14 C-25 17 -25 17 -25 17 Z " fill="#161515" transform="translate(63,105)"/>
<path d="M0 0 C0.99 0.33 1.98 0.66 3 1 C2.34 4.3 1.68 7.6 1 11 C2.65 11 4.3 11 6 11 C5.34 9.35 4.68 7.7 4 6 C5.938 6.75 5.938 6.75 8 8 C8.812 10.062 8.812 10.062 9 12 C8 13 8 13 5.934 13.098 C5.11 13.086 4.286 13.074 3.438 13.062 C2.611 13.053 1.785 13.044 0.934 13.035 C0.296 13.024 -0.343 13.012 -1 13 C-1.077 8.484 -1.102 4.409 0 0 Z " fill="#D8D8D8" transform="translate(40,179)"/>
<path d="M0 0 C0.66 0 1.32 0 2 0 C1.25 3.886 -0.447 6.153 -2.844 9.219 C-4.091 11.14 -4.569 12.765 -5 15 C-4.01 15.33 -3.02 15.66 -2 16 C-5 18 -5 18 -8 18 C-8.75 13.782 -8.497 11.846 -6.289 8.086 C-4.282 5.282 -2.308 2.563 0 0 Z " fill="#4B4A4A" transform="translate(118,59)"/>
<path d="M0 0 C0 0.33 0 0.66 0 1 C-4.95 2.485 -4.95 2.485 -10 4 C-9.34 4.66 -8.68 5.32 -8 6 C-7.196 5.258 -7.196 5.258 -6.375 4.5 C-3.406 2.625 -1.447 2.765 2 3 C2 3.33 2 3.66 2 4 C-0.31 4.33 -2.62 4.66 -5 5 C-4.67 6.98 -4.34 8.96 -4 11 C-4.66 10.67 -5.32 10.34 -6 10 C-6 9.34 -6 8.68 -6 8 C-7.083 8.062 -7.083 8.062 -8.188 8.125 C-11.207 7.991 -13.269 7.248 -16 6 C-11.564 0.825 -6.632 -0.398 0 0 Z " fill="#191818" transform="translate(144,37)"/>
<path d="M0 0 C0.99 0.33 1.98 0.66 3 1 C1.753 4.741 -0.193 6.258 -3 9 C-3.722 9.928 -4.444 10.856 -5.188 11.812 C-5.786 12.534 -6.384 13.256 -7 14 C-7.66 14 -8.32 14 -9 14 C-8.552 9.07 -6.18 5.648 -3 2 C-2.01 1.34 -1.02 0.68 0 0 Z " fill="#1A1919" transform="translate(135,48)"/>
<path d="M0 0 C0.66 0.66 1.32 1.32 2 2 C0.68 2.33 -0.64 2.66 -2 3 C-2 2.34 -2 1.68 -2 1 C-1.34 0.67 -0.68 0.34 0 0 Z M3 1 C12.399 7.497 12.399 7.497 14 12 C14.224 15.682 14.174 19.317 14 23 C13.67 23 13.34 23 13 23 C12.974 22.42 12.948 21.84 12.922 21.242 C12.525 15.775 11.686 12.283 8 8 C6.061 6.478 4.131 5.259 2 4 C2.33 3.01 2.66 2.02 3 1 Z " fill="#D4D3D3" transform="translate(147,81)"/>
<path d="M0 0 C0.33 0 0.66 0 1 0 C1 3.63 1 7.26 1 11 C0.67 11 0.34 11 0 11 C0 7.37 0 3.74 0 0 Z M3 10 C6.18 13.887 9.106 17.9 12 22 C6.362 20.689 4.146 18.671 1 14 C2 11 2 11 3 10 Z " fill="#131112" transform="translate(135,60)"/>
<path d="M0 0 C0.66 0 1.32 0 2 0 C3.128 2.228 4.252 4.457 5.375 6.688 C5.692 7.313 6.009 7.939 6.336 8.584 C11 17.864 11 17.864 11 22 C9.125 21.062 9.125 21.062 7 19 C6.385 16.872 6.028 14.743 5.637 12.562 C4.514 8.044 2.223 4.064 0 0 Z M12 22 C13.707 23.281 15.374 24.618 17 26 C17 26.66 17 27.32 17 28 C15.062 27.25 15.062 27.25 13 26 C12.25 23.875 12.25 23.875 12 22 Z " fill="#D4D4D4" transform="translate(138,143)"/>
<path d="M0 0 C9.48 0.057 9.48 0.057 12.793 2.266 C15.946 7.101 15.946 7.101 15.48 10.641 C15.254 11.177 15.027 11.713 14.793 12.266 C14.38 11.338 13.968 10.409 13.543 9.453 C11.786 6.252 10.85 5.103 7.793 3.266 C5.346 2.795 5.346 2.795 2.793 2.891 C1.947 2.883 1.102 2.875 0.23 2.867 C-2.641 3.337 -4.041 4.371 -6.207 6.266 C-3.478 0.419 -3.478 0.419 0 0 Z " fill="#C1C0C1" transform="translate(52.20703125,82.734375)"/>
<path d="M0 0 C4.431 1.208 6.981 2.517 10 6 C9.01 6.495 9.01 6.495 8 7 C7.01 6.67 6.02 6.34 5 6 C0.464 5.854 -3.575 5.894 -8 7 C-3.25 3 -3.25 3 -1 3 C-0.67 2.01 -0.34 1.02 0 0 Z " fill="#353434" transform="translate(180,179)"/>
<path d="M0 0 C3.3 0 6.6 0 10 0 C9.01 1.98 8.02 3.96 7 6 C2.446 6.369 2.446 6.369 0.188 4.5 C-0.204 4.005 -0.596 3.51 -1 3 C-0.67 2.01 -0.34 1.02 0 0 Z " fill="#151414" transform="translate(142,43)"/>
<path d="M0 0 C2.02 0.602 4.021 1.273 6 2 C6.33 2.66 6.66 3.32 7 4 C3.73 3.436 2.174 2.5 0 0 Z M4 4 C4 4.33 4 4.66 4 5 C3.252 5.11 2.505 5.219 1.734 5.332 C0.75 5.491 -0.235 5.649 -1.25 5.812 C-2.225 5.963 -3.199 6.114 -4.203 6.27 C-7.123 7.032 -8.742 8.038 -11 10 C-12.32 9.01 -13.64 8.02 -15 7 C-8.683 3.554 -3.096 3.685 4 4 Z " fill="#DBDADA" transform="translate(147,34)"/>
<path d="M0 0 C9.129 0.032 15.337 2.067 23 7 C22.67 7.66 22.34 8.32 22 9 C20.948 8.361 19.896 7.721 18.812 7.062 C15.852 5.374 13.411 4.437 10 4 C9.01 3.814 8.02 3.629 7 3.438 C4.276 3.04 1.746 2.919 -1 3 C-0.67 2.01 -0.34 1.02 0 0 Z " fill="#D4D4D4" transform="translate(125,84)"/>
<path d="M0 0 C0.66 0 1.32 0 2 0 C1.67 1.65 1.34 3.3 1 5 C3.915 3.926 5.778 3.222 8 1 C7.691 2.258 7.381 3.516 7.062 4.812 C5.859 10.171 5.388 15.53 5 21 C4.67 21 4.34 21 4 21 C3.973 18.875 3.954 16.75 3.938 14.625 C3.926 13.442 3.914 12.258 3.902 11.039 C4 8 4 8 5 6 C3.02 6.33 1.04 6.66 -1 7 C-0.67 4.69 -0.34 2.38 0 0 Z " fill="#100F10" transform="translate(109,72)"/>
<path d="M0 0 C-0.99 0.495 -0.99 0.495 -2 1 C-2.33 1.66 -2.66 2.32 -3 3 C-3 2.34 -3 1.68 -3 1 C-5.468 2.152 -7.048 3.048 -9 5 C-12.625 5.125 -12.625 5.125 -16 5 C-15.34 4.34 -14.68 3.68 -14 3 C-14.66 2.34 -15.32 1.68 -16 1 C-5.626 -1.481 -5.626 -1.481 0 0 Z " fill="#696869" transform="translate(177,35)"/>
<path d="M0 0 C2.64 1.98 5.28 3.96 8 6 C7.67 6.99 7.34 7.98 7 9 C6.01 8.34 5.02 7.68 4 7 C3.01 7 2.02 7 1 7 C0.67 4.69 0.34 2.38 0 0 Z M4 9 C4.99 9.99 5.98 10.98 7 12 C5.68 11.34 4.36 10.68 3 10 C3.33 9.67 3.66 9.34 4 9 Z " fill="#1A1919" transform="translate(155,61)"/>
<path d="M0 0 C-0.603 0.326 -1.207 0.652 -1.828 0.988 C-2.627 1.425 -3.427 1.862 -4.25 2.312 C-5.433 2.956 -5.433 2.956 -6.641 3.613 C-8.923 4.955 -11.005 6.259 -13 8 C-13.334 10.626 -13.334 10.626 -13 13 C-14.65 13 -16.3 13 -18 13 C-16.298 6.571 -11.201 3.312 -5.75 0.062 C-3 -1 -3 -1 0 0 Z " fill="#2E2D2E" transform="translate(133,46)"/>
<path d="M0 0 C1.938 0.688 1.938 0.688 4 2 C4.75 4.625 4.75 4.625 5 7 C2.03 7 -0.94 7 -4 7 C-4 6.34 -4 5.68 -4 5 C-3.01 5 -2.02 5 -1 5 C-0.67 3.35 -0.34 1.7 0 0 Z " fill="#E8E7E8" transform="translate(159,165)"/>
<path d="M0 0 C3.898 3.289 3.898 3.289 4.375 6.625 C4 9 4 9 2 11 C-1.125 11.125 -1.125 11.125 -4 11 C-3.67 10.01 -3.34 9.02 -3 8 C-1.68 8 -0.36 8 1 8 C0.67 5.36 0.34 2.72 0 0 Z " fill="#191818" transform="translate(147,114)"/>
<path d="M0 0 C2 1 2 1 2 1 Z M-2 1 C-1.01 1.33 -0.02 1.66 1 2 C1.054 4.125 1.093 6.25 1.125 8.375 C1.148 9.558 1.171 10.742 1.195 11.961 C1 15 1 15 -1 17 C-2.868 15.132 -2.432 12.075 -2.625 9.562 C-2.72 8.388 -2.816 7.214 -2.914 6.004 C-3 3 -3 3 -2 1 Z " fill="#211F20" transform="translate(138,55)"/>
<path d="M0 0 C0.33 0.66 0.66 1.32 1 2 C0.34 1.67 -0.32 1.34 -1 1 C-0.67 0.67 -0.34 0.34 0 0 Z M-4 4 C-4 4.99 -4 5.98 -4 7 C-5.793 8.789 -5.793 8.789 -8.188 10.625 C-8.965 11.236 -9.742 11.847 -10.543 12.477 C-13.095 14.059 -15.045 14.612 -18 15 C-13.38 11.274 -8.69 7.638 -4 4 Z M-20 15 C-18 16 -18 16 -18 16 Z " fill="#151414" transform="translate(87,148)"/>
<path d="M0 0 C0.66 1.32 1.32 2.64 2 4 C3.791 6.374 5.662 8.67 7.539 10.977 C9 13 9 13 9 15 C8.34 15 7.68 15 7 15 C5.711 13.469 5.711 13.469 4.375 11.5 C3.929 10.85 3.483 10.201 3.023 9.531 C2.686 9.026 2.348 8.521 2 8 C1.01 8.33 0.02 8.66 -1 9 C-0.67 6.03 -0.34 3.06 0 0 Z " fill="#CDCDCD" transform="translate(130,128)"/>
<path d="M0 0 C0 3 0 3 -2.406 5.699 C-3.43 6.703 -4.462 7.699 -5.5 8.688 C-6.025 9.199 -6.549 9.71 -7.09 10.236 C-8.387 11.498 -9.692 12.75 -11 14 C-11 10.302 -10.171 9.686 -7.75 7 C-7.147 6.319 -6.543 5.639 -5.922 4.938 C-4.062 3.063 -2.152 1.524 0 0 Z M-13 14 C-13 17 -13 17 -13 17 Z " fill="#262425" transform="translate(81,128)"/>
<path d="M0 0 C5.305 2.34 8.614 6.824 11 12 C10.664 14.285 10.664 14.285 10 16 C8 13 8 13 6.688 10.125 C4.875 6.769 2.716 4.642 0 2 C0 1.34 0 0.68 0 0 Z " fill="#CDCDCD" transform="translate(148,92)"/>
<path d="M0 0 C0.66 0.66 1.32 1.32 2 2 C1.83 5.221 1.186 6.763 -0.812 9.312 C-3 11 -3 11 -7 11 C-6.67 9.68 -6.34 8.36 -6 7 C-5.381 6.959 -4.762 6.918 -4.125 6.875 C-3.424 6.586 -2.722 6.297 -2 6 C-0.695 3.004 -0.695 3.004 0 0 Z " fill="#383737" transform="translate(182,60)"/>
<path d="M0 0 C1 1 1 1 1.062 3.562 C1.042 4.367 1.021 5.171 1 6 C0.01 6.33 -0.98 6.66 -2 7 C-3.65 4.69 -5.3 2.38 -7 0 C-3.864 -1.045 -3.005 -1.002 0 0 Z " fill="#7D7D7D" transform="translate(113,177)"/>
<path d="M0 0 C1.708 1.634 2.935 2.869 4 5 C5.888 5.685 5.888 5.685 8.062 6.125 C8.796 6.293 9.529 6.46 10.285 6.633 C10.851 6.754 11.417 6.875 12 7 C12 7.99 12 8.98 12 10 C11.01 9.67 10.02 9.34 9 9 C7.608 8.784 6.212 8.598 4.812 8.438 C3.554 8.293 2.296 8.149 1 8 C1 7.01 1 6.02 1 5 C0.689 3.329 0.359 1.661 0 0 Z " fill="#2B2A2B" transform="translate(157,156)"/>
<path d="M0 0 C0.99 0 1.98 0 3 0 C3.33 0.66 3.66 1.32 4 2 C4.99 2 5.98 2 7 2 C7.66 1.34 8.32 0.68 9 0 C9.33 1.98 9.66 3.96 10 6 C3.54 6.366 3.54 6.366 1.062 4.688 C0 3 0 3 0 0 Z " fill="#110F10" transform="translate(172,54)"/>
<path d="M0 0 C0.33 0.99 0.66 1.98 1 3 C1.99 3 2.98 3 4 3 C4 3.99 4 4.98 4 6 C1.188 6.625 1.188 6.625 -2 7 C-2.99 6.34 -3.98 5.68 -5 5 C-4.01 4.67 -3.02 4.34 -2 4 C-1.67 3.01 -1.34 2.02 -1 1 C-0.67 0.67 -0.34 0.34 0 0 Z " fill="#191818" transform="translate(114,180)"/>
<path d="M0 0 C0.66 0.66 1.32 1.32 2 2 C0.35 3.32 -1.3 4.64 -3 6 C-2 4 -1 2 0 0 Z M-4 6 C-3.34 6.66 -2.68 7.32 -2 8 C-2.66 9.32 -3.32 10.64 -4 12 C-4.99 12 -5.98 12 -7 12 C-6.625 9.562 -6.625 9.562 -6 7 C-5.34 6.67 -4.68 6.34 -4 6 Z " fill="#2A2829" transform="translate(42,115)"/>
<path d="M0 0 C1.688 2.375 1.688 2.375 1.438 5.125 C1.19 5.868 0.943 6.61 0.688 7.375 C0.358 6.385 0.028 5.395 -0.312 4.375 C-0.972 4.375 -1.633 4.375 -2.312 4.375 C-2.642 5.035 -2.972 5.695 -3.312 6.375 C-4.303 4.065 -5.292 1.755 -6.312 -0.625 C-3.372 -1.885 -2.69 -1.89 0 0 Z " fill="#969596" transform="translate(54.3125,184.625)"/>
<path d="M0 0 C0 0.99 0 1.98 0 3 C-1.68 4.316 -1.68 4.316 -3.875 5.562 C-6.272 6.941 -8.032 8.032 -10 10 C-10 8.68 -10 7.36 -10 6 C-7.812 4.297 -7.812 4.297 -5 2.75 C-4.072 2.229 -3.144 1.708 -2.188 1.172 C-1.105 0.592 -1.105 0.592 0 0 Z " fill="#E7E7E7" transform="translate(58,156)"/>
<path d="M0 0 C-1.137 3.41 -2.258 4.376 -4.938 6.688 C-5.648 7.31 -6.358 7.933 -7.09 8.574 C-9 10 -9 10 -11 10 C-9.631 6.851 -8.125 4.952 -5.5 2.75 C-4.892 2.229 -4.283 1.708 -3.656 1.172 C-2 0 -2 0 0 0 Z " fill="#2F2E2F" transform="translate(82,118)"/>
<path d="M0 0 C-3.625 6.875 -3.625 6.875 -7 8 C-7 5.69 -7 3.38 -7 1 C-3.375 -1.125 -3.375 -1.125 0 0 Z " fill="#222021" transform="translate(127,54)"/>
<path d="M0 0 C3.671 1.478 5.411 3.476 7.75 6.625 C8.67 7.851 8.67 7.851 9.609 9.102 C10.298 10.041 10.298 10.041 11 11 C10.01 11.33 9.02 11.66 8 12 C6.664 10.19 5.331 8.377 4 6.562 C3.257 5.553 2.515 4.544 1.75 3.504 C0 1 0 1 0 0 Z " fill="#313030" transform="translate(87,171)"/>
<path d="M0 0 C0.66 0 1.32 0 2 0 C2 0.66 2 1.32 2 2 C2.66 2.33 3.32 2.66 4 3 C-2.886 4.016 -9.098 3.839 -16 3 C-16 2.67 -16 2.34 -16 2 C-14.929 1.939 -13.858 1.879 -12.754 1.816 C-11.357 1.732 -9.96 1.647 -8.562 1.562 C-7.502 1.504 -7.502 1.504 -6.42 1.443 C-2.913 1.524 -2.913 1.524 0 0 Z " fill="#4A494A" transform="translate(115,141)"/>
<path d="M0 0 C-3.314 2.209 -4.345 2.225 -8.188 2.125 C-9.089 2.107 -9.99 2.089 -10.918 2.07 C-11.605 2.047 -12.292 2.024 -13 2 C-13 1.34 -13 0.68 -13 0 C-4.571 -1.286 -4.571 -1.286 0 0 Z " fill="#020202" transform="translate(60,142)"/>
<path d="M0 0 C1.32 0.66 2.64 1.32 4 2 C3.67 2.33 3.34 2.66 3 3 C3.66 3.33 4.32 3.66 5 4 C5 4.66 5 5.32 5 6 C1.7 5.67 -1.6 5.34 -5 5 C-5 4.67 -5 4.34 -5 4 C-3.35 3.67 -1.7 3.34 0 3 C0 2.01 0 1.02 0 0 Z " fill="#302F30" transform="translate(145,32)"/>
<path d="M0 0 C1.938 0.75 1.938 0.75 4 2 C4.812 4.062 4.812 4.062 5 6 C4 7 4 7 1.934 7.098 C1.11 7.086 0.286 7.074 -0.562 7.062 C-1.389 7.053 -2.215 7.044 -3.066 7.035 C-3.704 7.024 -4.343 7.012 -5 7 C-5 6.67 -5 6.34 -5 6 C-3.02 5.67 -1.04 5.34 1 5 C0.67 3.35 0.34 1.7 0 0 Z " fill="#AFAEAE" transform="translate(44,185)"/>
<path d="M0 0 C-2.406 2.406 -3.724 2.376 -7 3 C-9.234 3.991 -9.234 3.991 -11 5 C-11.99 4.01 -12.98 3.02 -14 2 C-9.224 0.408 -5.04 -0.117 0 0 Z " fill="#C4C4C4" transform="translate(173,62)"/>
<path d="M0 0 C0.66 0 1.32 0 2 0 C1.67 0.66 1.34 1.32 1 2 C0.67 1.34 0.34 0.68 0 0 Z M-2 1 C-1.34 1 -0.68 1 0 1 C-0.33 1.66 -0.66 2.32 -1 3 C-1.33 2.34 -1.66 1.68 -2 1 Z M-4 4 C-3.01 4.33 -2.02 4.66 -1 5 C-1.66 5.66 -2.32 6.32 -3 7 C-3.66 7 -4.32 7 -5 7 C-4.67 6.01 -4.34 5.02 -4 4 Z M-10 8 C-9.01 8.495 -9.01 8.495 -8 9 C-8.99 9.495 -8.99 9.495 -10 10 C-10 9.34 -10 8.68 -10 8 Z M-7 8 C-6.67 8.66 -6.34 9.32 -6 10 C-6.66 9.67 -7.32 9.34 -8 9 C-7.67 8.67 -7.34 8.34 -7 8 Z " fill="#272526" transform="translate(67,99)"/>
<path d="M0 0 C1.32 0.99 2.64 1.98 4 3 C0.04 3.66 -3.92 4.32 -8 5 C-5.21 2.908 -3.068 1.424 0 0 Z " fill="#3A393A" transform="translate(82,188)"/>
<path d="M0 0 C0.598 0.784 1.196 1.568 1.812 2.375 C3.911 5.146 3.911 5.146 7 7 C6.34 7.66 5.68 8.32 5 9 C3.02 7.35 1.04 5.7 -1 4 C-0.67 2.68 -0.34 1.36 0 0 Z " fill="#D6D6D6" transform="translate(171,54)"/>
<path d="M0 0 C2.875 0.25 2.875 0.25 6 1 C7.375 3.062 7.375 3.062 8 5 C4.562 4.188 4.562 4.188 1 3 C0.67 2.01 0.34 1.02 0 0 Z " fill="#262526" transform="translate(182,181)"/>
<path d="M0 0 C4.714 0.479 8.666 0.968 13 3 C9.467 4.178 7.624 3.652 4 3 C2.334 2.964 0.666 2.951 -1 3 C-0.67 2.01 -0.34 1.02 0 0 Z " fill="#919191" transform="translate(125,84)"/>
<path d="M0 0 C1.32 0.99 2.64 1.98 4 3 C3.67 3.66 3.34 4.32 3 5 C1.5 3.625 1.5 3.625 0 2 C0 1.34 0 0.68 0 0 Z M4 5 C5.707 6.281 7.374 7.618 9 9 C9 9.66 9 10.32 9 11 C7.062 10.25 7.062 10.25 5 9 C4.25 6.875 4.25 6.875 4 5 Z " fill="#DCDCDC" transform="translate(146,160)"/>
<path d="M0 0 C2.625 0.25 2.625 0.25 4.438 1.75 C4.829 2.245 5.221 2.74 5.625 3.25 C4.635 4.57 3.645 5.89 2.625 7.25 C2.377 6.631 2.13 6.012 1.875 5.375 C0.419 2.899 -0.753 2.299 -3.375 1.25 C-2.375 0.25 -2.375 0.25 0 0 Z " fill="#232222" transform="translate(169.375,133.75)"/>
<path d="M0 0 C1.226 0.153 1.226 0.153 2.477 0.309 C3.416 0.434 3.416 0.434 4.375 0.562 C4.375 0.892 4.375 1.222 4.375 1.562 C1.299 1.855 1.299 1.855 -1.777 2.148 C-2.387 2.285 -2.997 2.422 -3.625 2.562 C-3.955 3.222 -4.285 3.883 -4.625 4.562 C-5.285 4.562 -5.945 4.562 -6.625 4.562 C-6.625 3.242 -6.625 1.922 -6.625 0.562 C-4.104 -0.698 -2.771 -0.356 0 0 Z " fill="#C2C2C2" transform="translate(145.625,41.4375)"/>
<path d="M0 0 C0.103 0.639 0.206 1.279 0.312 1.938 C0.539 2.618 0.766 3.299 1 4 C1.99 4.33 2.98 4.66 4 5 C1 7 1 7 -2 7 C-1.125 2.25 -1.125 2.25 0 0 Z " fill="#B3B3B3" transform="translate(112,70)"/>
<path d="M0 0 C1.32 0.33 2.64 0.66 4 1 C3.67 2.65 3.34 4.3 3 6 C2.01 5.67 1.02 5.34 0 5 C0 3.35 0 1.7 0 0 Z " fill="#323031" transform="translate(171,49)"/>
<path d="M0 0 C0.66 0.33 1.32 0.66 2 1 C2.33 1.99 2.66 2.98 3 4 C-0.069 5.534 -2.701 4.55 -6 4 C-2.25 2 -2.25 2 0 2 C0 1.34 0 0.68 0 0 Z " fill="#585757" transform="translate(59,79)"/>
<path d="M0 0 C0.66 0 1.32 0 2 0 C5.115 4.153 5.115 4.153 4.688 7.312 C4.461 7.869 4.234 8.426 4 9 C2.009 6.014 1.059 3.403 0 0 Z " fill="#D4D3D3" transform="translate(154,99)"/>
<path d="M0 0 C0.66 1.32 1.32 2.64 2 4 C1.01 5.485 1.01 5.485 0 7 C-0.66 7 -1.32 7 -2 7 C-1.34 4.69 -0.68 2.38 0 0 Z " fill="#191818" transform="translate(115,88)"/>
<path d="M0 0 C3.161 1.37 3.993 1.989 6 5 C3.03 4.505 3.03 4.505 0 4 C0 2.68 0 1.36 0 0 Z " fill="#191818" transform="translate(61,81)"/>
<path d="M0 0 C0 3 0 3 -2 5.188 C-2.66 5.786 -3.32 6.384 -4 7 C-4.66 6.67 -5.32 6.34 -6 6 C-2.25 1.125 -2.25 1.125 0 0 Z " fill="#242324" transform="translate(134,49)"/>
<path d="M0 0 C3 2 3 2 3.688 4.625 C3.791 5.409 3.894 6.192 4 7 C3.34 7 2.68 7 2 7 C2 6.01 2 5.02 2 4 C1.34 4 0.68 4 0 4 C-0.33 3.01 -0.66 2.02 -1 1 C-0.67 0.67 -0.34 0.34 0 0 Z " fill="#CCCCCC" transform="translate(167,164)"/>
<path d="M0 0 C0.33 0.66 0.66 1.32 1 2 C0.25 4.062 0.25 4.062 -1 6 C-1.99 6.33 -2.98 6.66 -4 7 C-3.398 4.98 -2.727 2.979 -2 1 C-1.34 0.67 -0.68 0.34 0 0 Z " fill="#DADADA" transform="translate(169,99)"/>
<path d="M0 0 C0.66 0.99 1.32 1.98 2 3 C1.67 3.99 1.34 4.98 1 6 C-0.32 5.34 -1.64 4.68 -3 4 C-2.01 2.68 -1.02 1.36 0 0 Z " fill="#3E3D3D" transform="translate(180,54)"/>
<path d="M0 0 C1.98 0 3.96 0 6 0 C5.67 1.32 5.34 2.64 5 4 C4.01 4 3.02 4 2 4 C2 3.34 2 2.68 2 2 C1.34 1.34 0.68 0.68 0 0 Z " fill="#151415" transform="translate(173,34)"/>
<path d="M0 0 C2.97 0.495 2.97 0.495 6 1 C6 1.99 6 2.98 6 4 C4.02 3.34 2.04 2.68 0 2 C0 1.34 0 0.68 0 0 Z " fill="#2C2B2B" transform="translate(41,140)"/>
<path d="M0 0 C0.66 0 1.32 0 2 0 C1.67 1.65 1.34 3.3 1 5 C0.01 5.33 -0.98 5.66 -2 6 C-1.34 4.02 -0.68 2.04 0 0 Z " fill="#E7E7E7" transform="translate(46,165)"/>
<path d="M0 0 C0 0.99 0 1.98 0 3 C-1.98 3.99 -1.98 3.99 -4 5 C-2.25 1.125 -2.25 1.125 0 0 Z " fill="#DFDFDF" transform="translate(58,156)"/>
<path d="M0 0 C0 1.65 0 3.3 0 5 C-0.99 5 -1.98 5 -3 5 C-3 3.68 -3 2.36 -3 1 C-1 0 -1 0 0 0 Z " fill="#0D0C0C" transform="translate(38,126)"/>
<path d="M0 0 C1.32 0.33 2.64 0.66 4 1 C4 1.99 4 2.98 4 4 C2.68 3.67 1.36 3.34 0 3 C0 2.01 0 1.02 0 0 Z " fill="#181718" transform="translate(170,84)"/>
<path d="M0 0 C1.32 0.33 2.64 0.66 4 1 C4 2.65 4 4.3 4 6 C0 1.125 0 1.125 0 0 Z " fill="#717171" transform="translate(110,177)"/>
<path d="M0 0 C0.33 0.99 0.66 1.98 1 3 C0.01 3.99 -0.98 4.98 -2 6 C-2 4.35 -2 2.7 -2 1 C-1.34 0.67 -0.68 0.34 0 0 Z " fill="#E8E8E8" transform="translate(43,175)"/>
<path d="M0 0 C0.33 0 0.66 0 1 0 C1.33 1.98 1.66 3.96 2 6 C1.01 6 0.02 6 -1 6 C-0.67 4.02 -0.34 2.04 0 0 Z " fill="#373536" transform="translate(157,108)"/>
<path d="M0 0 C1.98 0.99 1.98 0.99 4 2 C4 2.66 4 3.32 4 4 C3.01 3.67 2.02 3.34 1 3 C0.67 2.01 0.34 1.02 0 0 Z " fill="#323131" transform="translate(87,171)"/>
<path d="M0 0 C1.98 0.99 1.98 0.99 4 2 C4 2.66 4 3.32 4 4 C2.68 3.34 1.36 2.68 0 2 C0 1.34 0 0.68 0 0 Z " fill="#CDCDCD" transform="translate(151,167)"/>
<path d="M0 0 C1 3 1 3 0.062 5.188 C-0.463 6.085 -0.463 6.085 -1 7 C-1.625 4.625 -1.625 4.625 -2 2 C-1.34 1.34 -0.68 0.68 0 0 Z " fill="#4A4849" transform="translate(86,150)"/>
<path d="M0 0 C0.66 0 1.32 0 2 0 C1.67 0.99 1.34 1.98 1 3 C0.34 3 -0.32 3 -1 3 C-0.67 2.01 -0.34 1.02 0 0 Z " fill="#1B1B1B" transform="translate(102,105)"/>
<path d="M0 0 C1.98 0.99 1.98 0.99 4 2 C4 2.66 4 3.32 4 4 C2.68 3.34 1.36 2.68 0 2 C0 1.34 0 0.68 0 0 Z " fill="#DCDCDC" transform="translate(140,46)"/>
<path d="M0 0 C1.98 0.99 1.98 0.99 4 2 C4 2.66 4 3.32 4 4 C3.01 3.67 2.02 3.34 1 3 C0.67 2.01 0.34 1.02 0 0 Z " fill="#292828" transform="translate(90,175)"/>
<path d="M0 0 C2.475 0.495 2.475 0.495 5 1 C3.02 1.99 3.02 1.99 1 3 C0.67 2.01 0.34 1.02 0 0 Z " fill="#151414" transform="translate(55,141)"/>
<path d="M0 0 C0 0.99 0 1.98 0 3 C-1.65 2.67 -3.3 2.34 -5 2 C-2 0 -2 0 0 0 Z " fill="#E3E2E2" transform="translate(172,36)"/>
<path d="M0 0 C0.99 0 1.98 0 3 0 C3 0.99 3 1.98 3 3 C2.01 2.67 1.02 2.34 0 2 C0 1.34 0 0.68 0 0 Z " fill="#100F10" transform="translate(182,181)"/>
<path d="M0 0 C0.66 0 1.32 0 2 0 C1.34 1.32 0.68 2.64 0 4 C0 2.68 0 1.36 0 0 Z " fill="#D5D5D5" transform="translate(48,162)"/>
<path d="M0 0 C0.99 0.33 1.98 0.66 3 1 C3 1.66 3 2.32 3 3 C2.01 3 1.02 3 0 3 C0 2.01 0 1.02 0 0 Z " fill="#4A494A" transform="translate(164,100)"/>
<path d="M0 0 C0.66 0.33 1.32 0.66 2 1 C2 1.66 2 2.32 2 3 C1.01 3 0.02 3 -1 3 C-0.67 2.01 -0.34 1.02 0 0 Z " fill="#1E1C1D" transform="translate(43,186)"/>
<path d="M0 0 C0.66 0.66 1.32 1.32 2 2 C0.515 2.99 0.515 2.99 -1 4 C-0.67 2.68 -0.34 1.36 0 0 Z " fill="#161515" transform="translate(147,152)"/>
<path d="M0 0 C0.99 0.33 1.98 0.66 3 1 C1.515 1.99 1.515 1.99 0 3 C0 2.01 0 1.02 0 0 Z " fill="#171717" transform="translate(124,53)"/>
</svg>